<?xml version="1.0" encoding="utf-8"?>
<!-- Generator: Adobe Illustrator 15.1.0, SVG Export Plug-In . SVG Version: 6.00 Build 0)  -->
<!DOCTYPE svg PUBLIC "-//W3C//DTD SVG 1.1//EN" "http://www.w3.org/Graphics/SVG/1.1/DTD/svg11.dtd">
<svg version="1.1" id="Layer_1" xmlns="http://www.w3.org/2000/svg" xmlns:xlink="http://www.w3.org/1999/xlink" x="0px" y="0px"
	 width="1145px" height="497px" viewBox="0 0 1145 497" enable-background="new 0 0 1145 497" xml:space="preserve">
<line fill="none" stroke="#A1A1A1" stroke-miterlimit="10" x1="877.5" y1="109.798" x2="886.005" y2="151.625"/>
<line fill="none" stroke="#A1A1A1" stroke-miterlimit="10" x1="905.5" y1="150" x2="905.5" y2="106"/>
<line fill="none" stroke="#A1A1A1" stroke-miterlimit="10" x1="925.373" y1="156.508" x2="943.321" y2="117.699"/>
<g>
	<defs>
		<rect id="SVGID_1_" x="74" y="-56" width="1054" height="553"/>
	</defs>
	<clipPath id="SVGID_2_">
		<use xlink:href="#SVGID_1_"  overflow="visible"/>
	</clipPath>
	
		<path clip-path="url(#SVGID_2_)" fill="#FFFFFF" stroke="#A1A1A1" stroke-width="6" stroke-linecap="round" stroke-linejoin="round" stroke-miterlimit="10" d="
		M271.418,309.23"/>
	<g clip-path="url(#SVGID_2_)">
		<path fill="#A1A1A1" d="M44.412,249.37c0.211,5.774,0.759,11.515,1.495,17.221c0.726,5.707,1.682,11.376,2.82,16.998
			c1.168,5.616,2.484,11.194,4.08,16.689c1.565,5.502,3.347,10.937,5.395,16.262c4.069,10.657,9.166,20.904,15.376,30.395
			c6.206,9.487,13.537,18.203,21.886,25.77c8.34,7.575,17.688,13.983,27.696,19.086c10.007,5.112,20.659,8.916,31.589,11.58
			c21.907,5.331,44.779,6.097,67.357,4.355l0.113-0.009l0.557,0.009l0.689,0.011l0.815-0.003l1.682-0.045
			c1.133-0.045,2.28-0.116,3.43-0.209c2.301-0.186,4.616-0.453,6.928-0.784c4.625-0.663,9.242-1.58,13.817-2.692
			c9.155-2.224,18.167-5.181,26.944-8.752c17.548-7.177,34.242-16.538,49.854-27.482c15.638-10.92,30.295-23.308,43.947-36.754
			c13.699-13.405,26.433-27.841,38.319-42.967l-0.467,0.683c0.551-0.912,1.009-1.628,1.517-2.416l1.503-2.278
			c1.01-1.504,2.039-2.982,3.083-4.447c2.089-2.928,4.245-5.792,6.46-8.608c4.432-5.629,9.102-11.059,14.001-16.282
			c9.8-10.438,20.521-20.069,32.2-28.507c11.67-8.434,24.329-15.655,37.819-21.064c13.479-5.406,27.796-9.165,42.343-10.397
			c3.635-0.312,7.282-0.73,10.928-0.73h2.735l1.367,0.242l0.683,0.122l0.171,0.058c0.348-0.001-0.377-0.201-0.272-0.202l0.087-0.22
			h0.485c2.107,0,3.952,0.368,5.849,0.545c7.49,0.742,14.65,2.456,21.652,4.522c13.983,4.171,27.158,10.403,39.501,17.768
			c12.347,7.378,23.854,16.018,34.591,25.412c10.737,9.403,20.711,19.611,29.983,30.357l0.139,0.169l0.133,0.178
			c0.539,0.711,1.271,1.622,1.943,2.434c0.69,0.834,1.397,1.667,2.116,2.492c1.438,1.652,2.919,3.282,4.432,4.887
			c3.026,3.209,6.176,6.319,9.426,9.323c6.501,6.008,13.399,11.596,20.634,16.684c14.464,10.172,30.328,18.343,47.104,23.606
			c16.761,5.286,34.416,7.57,51.959,6.581c17.552-0.95,34.912-5.122,51.376-11.67l0.269-0.106l0.292-0.083
			c0.789-0.225,1.819-0.552,2.742-0.86c0.948-0.317,1.901-0.651,2.852-0.997c1.901-0.692,3.797-1.434,5.68-2.213
			c3.765-1.561,7.479-3.273,11.125-5.121c7.292-3.697,14.315-7.93,20.947-12.683c13.266-9.488,24.95-21.148,33.87-34.668
			c8.954-13.492,14.967-28.852,17.768-44.869c2.839-16.027,2.578-32.609,0.152-48.892l0.084,0.418
			c-0.152-0.606-0.384-1.416-0.601-2.136c-0.223-0.742-0.459-1.487-0.705-2.231c-0.492-1.489-1.022-2.974-1.584-4.45
			c-1.123-2.951-2.371-5.863-3.732-8.718c-2.724-5.709-5.9-11.197-9.549-16.316c-7.273-10.233-16.575-19-27.599-24.622
			c-5.494-2.819-11.379-4.855-17.459-6.06c-6.08-1.214-12.345-1.606-18.611-1.312c-6.271,0.295-12.544,1.268-18.724,2.749
			c-3.091,0.738-6.16,1.606-9.202,2.579l-2.277,0.75l-1.135,0.389c-0.27,0.089-0.587,0.218-0.939,0.362
			c-1.38,0.571-2.792,1.24-4.176,1.947c-11.115,5.745-21.047,14.059-28.757,23.998c-7.74,9.95-13.174,21.631-16.119,33.966
			c-2.976,12.346-3.551,25.274-2.448,38.066c1.103,12.811,3.848,25.514,7.604,37.917c0.94,3.102,1.945,6.188,3.01,9.255
			c0.531,1.533,1.077,3.063,1.639,4.588l0.418,1.18l0.406,1.085c0.281,0.729,0.58,1.459,0.89,2.188
			c2.498,5.839,5.593,11.509,9.021,16.946c6.883,10.882,15.217,20.872,24.56,29.8c18.707,17.898,41.481,31.358,65.797,40.498
			c24.357,9.178,50.216,14.192,76.239,16.267c13.023,1.04,26.113,1.345,39.194,1.057c13.086-0.304,26.146-0.908,39.38-0.766
			c-12.897,3.007-26.081,4.301-39.275,4.695c-13.197,0.41-26.427,0.224-39.62-0.709c-26.362-1.863-52.686-6.702-77.662-15.853
			c-24.93-9.113-48.48-22.71-67.985-41.034c-9.742-9.143-18.474-19.408-25.751-30.684c-3.63-5.646-6.913-11.519-9.646-17.743
			c-0.34-0.78-0.67-1.567-0.988-2.368l-0.469-1.22l-0.416-1.139c-0.588-1.555-1.16-3.115-1.719-4.682
			c-1.119-3.131-2.179-6.287-3.174-9.466c-3.975-12.709-6.945-25.815-8.221-39.2c-1.273-13.362-0.816-27.048,2.253-40.32
			c3.033-13.254,8.805-26.006,17.124-36.897c8.312-10.897,18.918-19.969,31.098-26.413c1.535-0.802,3.087-1.557,4.738-2.259
			c0.405-0.17,0.847-0.356,1.354-0.534l1.193-0.421l2.397-0.814c3.208-1.058,6.459-2.01,9.753-2.829
			c6.585-1.64,13.349-2.76,20.209-3.146c6.854-0.385,13.812-0.023,20.639,1.275c6.825,1.288,13.505,3.527,19.735,6.653
			c6.235,3.12,12.007,7.114,17.18,11.714c5.178,4.601,9.767,9.794,13.797,15.34c4.032,5.55,7.517,11.452,10.508,17.578
			c1.495,3.064,2.867,6.186,4.111,9.366c0.621,1.59,1.211,3.195,1.766,4.821c0.276,0.813,0.544,1.632,0.802,2.461
			c0.263,0.852,0.495,1.619,0.753,2.604l0.045,0.171l0.039,0.248c2.698,17.054,3.172,34.671,0.274,51.956
			c-2.851,17.266-9.237,34.07-18.834,48.809c-9.557,14.779-22.147,27.398-36.253,37.629c-7.062,5.122-14.512,9.672-22.252,13.655
			c-3.872,1.99-7.816,3.839-11.839,5.533c-2.013,0.847-4.043,1.655-6.103,2.419c-1.03,0.382-2.067,0.753-3.118,1.11
			c-1.077,0.364-2.055,0.689-3.293,1.05l0.561-0.189c-17.355,7.022-35.881,11.618-54.762,12.752
			c-18.867,1.181-37.973-1.178-56.018-6.756c-18.069-5.554-35.052-14.194-50.461-24.896c-7.71-5.355-15.045-11.226-21.972-17.55
			c-3.463-3.164-6.823-6.441-10.071-9.846c-1.624-1.702-3.22-3.437-4.785-5.214c-0.782-0.889-1.558-1.788-2.326-2.705
			c-0.784-0.941-1.493-1.798-2.338-2.898l0.271,0.336c-18.026-20.597-38.465-39.207-61.74-53.07
			c-11.613-6.903-23.924-12.615-36.703-16.396c-6.373-1.874-12.9-3.291-19.302-3.908c-1.575-0.148-3.214-0.249-4.595-0.244
			l-0.837,0.002l-0.624-0.01l-1.249-0.021l-2.497,0.005c-3.328,0.04-6.654,0.195-9.968,0.486
			c-13.262,1.151-26.321,4.399-38.723,9.399c-12.407,5.003-24.159,11.72-35.079,19.645c-10.927,7.926-21.045,17.04-30.317,26.957
			c-4.635,4.961-9.06,10.126-13.248,15.466c-2.092,2.671-4.126,5.385-6.083,8.14c-0.978,1.377-1.938,2.764-2.87,4.156l-1.374,2.091
			c-0.437,0.678-0.914,1.435-1.263,2.016l-0.221,0.367l-0.247,0.315c-12.159,15.535-25.227,30.415-39.356,44.296
			c-14.174,13.823-29.38,26.694-45.804,37.94c-16.434,11.199-34.009,20.926-52.724,28.067c-9.348,3.573-18.949,6.563-28.791,8.685
			c-4.922,1.056-9.898,1.906-14.935,2.491c-2.519,0.291-5.053,0.515-7.613,0.651c-1.28,0.068-2.567,0.114-3.869,0.131l-1.971-0.002
			l-1.012-0.104L222.105,418h0.67c-23.434,1-47.278-0.309-70.139-6.596c-11.404-3.15-22.517-7.467-32.909-13.183
			c-10.394-5.701-20.045-12.743-28.553-20.955c-8.519-8.205-15.885-17.525-22.014-27.547c-6.135-10.026-11.051-20.725-14.884-31.754
			c-3.828-11.035-6.564-22.409-8.23-33.912c-0.845-5.75-1.41-11.531-1.721-17.321C44.053,260.942,43.961,255.139,44.412,249.37z"/>
	</g>
	<path clip-path="url(#SVGID_2_)" fill="#A1A1A1" d="M657.301,243.397c0,0,11.841-21.581,17.48-34.288
		c0,0,45.829,14.825,40.188,45.888l-30.896,14.051L657.301,243.397z"/>
	<g clip-path="url(#SVGID_2_)">
		<path fill="#A1A1A1" d="M1085.004,346.772c-7.513,2.067-15.201,3.468-22.917,4.587c-7.724,1.099-15.502,1.829-23.302,2.228
			c-15.6,0.757-31.278,0.182-46.807-1.739c-15.519-1.941-30.912-5.313-45.699-10.582c-14.773-5.259-28.936-12.462-41.602-21.822
			c-12.676-9.333-23.769-20.835-32.638-33.848c-4.443-6.499-8.347-13.36-11.724-20.462l-1.243-2.674l-1.21-2.667
			c-0.806-1.819-1.546-3.647-2.246-5.492c-1.397-3.688-2.63-7.434-3.702-11.226c-2.14-7.583-3.655-15.364-4.313-23.256
			c-0.654-7.884-0.438-15.897,1.033-23.75c1.459-7.842,4.235-15.507,8.413-22.375c4.156-6.88,9.69-12.887,16.011-17.775l0.155-0.121
			l0.143-0.071c3.646-1.825,7.261-3.169,11.041-4.328c3.764-1.134,7.62-1.99,11.544-2.488c7.819-1.002,16.04-0.535,23.621,2.322
			c3.779,1.412,7.349,3.411,10.534,5.884c3.192,2.47,5.992,5.402,8.391,8.593c4.804,6.405,8.022,13.739,10.321,21.205
			c0.286,0.936,0.56,1.875,0.818,2.817l0.098,0.353l0.05,0.205l0.02,0.094l0.04,0.193l0.142,0.733l0.256,1.451
			c0.323,1.93,0.591,3.856,0.82,5.786c0.455,3.86,0.758,7.73,0.916,11.606c0.311,7.752,0.065,15.528-0.788,23.251
			c-1.702,15.422-5.912,30.728-13.337,44.516c-3.705,6.896-8.187,13.335-13.408,19.229c-5.357,5.82-11.44,10.758-17.916,15.117
			c-12.972,8.688-27.644,14.699-42.848,17.995c-15.219,3.312-30.932,3.921-46.354,2.43c-15.439-1.487-30.603-5.021-45.249-9.898
			l0.182,0.052c-1.349-0.358-2.416-0.74-3.578-1.166c-1.136-0.422-2.249-0.874-3.351-1.348c-2.201-0.946-4.35-1.979-6.463-3.068
			c-4.224-2.185-8.302-4.6-12.269-7.17c-7.931-5.146-15.422-10.895-22.577-17.003c-14.291-12.255-27.261-25.91-39.329-40.254
			l0.123,0.134c-2.783-2.727-5.854-5.4-8.928-7.95c-3.092-2.557-6.266-5.022-9.505-7.399c-6.48-4.751-13.222-9.151-20.188-13.154
			c-13.929-7.997-28.786-14.426-44.275-18.56c-15.473-4.143-31.594-5.911-47.549-4.741c-15.955,1.138-31.657,5.24-46.268,11.798
			l-1.638-3.649c14.986-6.767,31.163-11.036,47.604-12.242c16.443-1.242,33.047,0.549,48.93,4.765
			c15.904,4.209,31.109,10.756,45.34,18.885c7.118,4.07,14.002,8.541,20.623,13.374c3.31,2.418,6.554,4.927,9.722,7.535
			c3.176,2.627,6.244,5.275,9.266,8.223l0.054,0.053l0.069,0.082c11.977,14.174,24.825,27.635,38.897,39.648
			c7.032,6.001,14.372,11.64,22.094,16.653c3.86,2.504,7.817,4.849,11.88,6.952c2.031,1.05,4.09,2.038,6.173,2.935
			c1.042,0.448,2.09,0.874,3.141,1.266c1.024,0.382,2.162,0.771,3.067,1.012l0.123,0.032l0.06,0.02
			c14.375,4.795,29.21,8.253,44.25,9.709c15.022,1.459,30.261,0.866,44.972-2.328c14.695-3.179,28.843-8.975,41.32-17.323
			c6.214-4.173,12.092-8.958,17.104-14.404c4.928-5.559,9.256-11.756,12.793-18.342c7.116-13.195,11.198-27.941,12.855-42.9
			c0.831-7.488,1.073-15.05,0.774-22.588c-0.148-3.769-0.429-7.533-0.861-11.273c-0.217-1.869-0.471-3.734-0.774-5.579l-0.239-1.375
			l-0.128-0.676l-0.032-0.158l-0.017-0.082c-0.012-0.055,0.04,0.163,0.007,0.031l-0.093-0.338c-0.245-0.903-0.505-1.802-0.775-2.696
			c-2.173-7.136-5.206-14.031-9.592-19.905c-4.351-5.875-10.191-10.567-16.987-13.098c-6.781-2.58-14.295-3.064-21.615-2.146
			c-3.669,0.456-7.311,1.251-10.875,2.315c-3.537,1.064-7.118,2.407-10.319,3.999l0.297-0.191
			c-5.979,4.602-11.165,10.208-15.07,16.631c-3.924,6.412-6.555,13.589-7.958,21.016c-1.414,7.433-1.65,15.097-1.04,22.695
			c0.611,7.604,2.059,15.156,4.119,22.533c1.031,3.689,2.222,7.337,3.567,10.919c0.674,1.79,1.388,3.567,2.152,5.304l1.19,2.644
			l1.207,2.615c3.278,6.943,7.067,13.644,11.379,19.987c8.608,12.7,19.367,23.92,31.703,33.055
			c12.325,9.161,26.15,16.247,40.634,21.446c14.494,5.21,29.641,8.575,44.949,10.532c15.321,1.963,30.815,2.458,46.274,2.045
			C1054.136,350.149,1069.6,348.967,1085.004,346.772z"/>
	</g>
	<g clip-path="url(#SVGID_2_)">
		<path fill="#A1A1A1" d="M121.31,357.364c0.755-0.706,1.221-0.765,1.638-0.645l1.241,0.365c0.831,0.235,1.668,0.455,2.508,0.661
			c1.67,0.447,3.36,0.817,5.044,1.198c3.375,0.73,6.778,1.339,10.206,1.697c6.85,0.732,13.814,0.268,20.354-1.405
			c6.531-1.716,12.614-4.628,17.744-8.647c5.164-3.969,9.528-8.885,12.969-14.484c3.451-5.594,6.05-11.781,8.04-18.208
			c0.996-3.216,1.801-6.507,2.511-9.829c0.34-1.362,0.507-3.109,0.676-4.733c0.154-1.65,0.25-3.307,0.279-4.949
			c0.059-3.277-0.15-6.546-0.842-9.47c-0.667-2.924-1.963-5.399-3.548-6.355c-0.786-0.51-1.726-0.778-2.915-0.801
			c-1.18-0.02-2.546,0.228-3.942,0.66c-2.81,0.875-5.702,2.42-8.48,4.181l0.438-0.323c-0.46,0.399-1.097,1.001-1.641,1.54
			c-0.564,0.559-1.122,1.135-1.671,1.723c-1.098,1.177-2.162,2.4-3.188,3.656c-2.053,2.514-3.956,5.16-5.693,7.907
			c-3.476,5.496-6.285,11.404-8.283,17.564c-1.999,6.16-3.176,12.572-3.47,19.036c-0.152,3.232-0.083,6.477,0.188,9.709
			c0.139,1.616,0.326,3.229,0.563,4.837c0.122,0.804,0.249,1.606,0.395,2.406l0.144,0.835l0.077,0.571l0.18,1.201
			c1.047,6.484,2.636,12.978,4.721,19.214c2.099,6.232,4.732,12.271,8.169,17.663c3.426,5.367,7.74,10.091,12.971,12.956
			c5.203,2.914,11.278,3.71,17.331,2.662l-2.422,1.463c0.614-0.718,1.331-1.664,1.964-2.542c0.647-0.899,1.273-1.822,1.872-2.761
			c1.197-1.879,2.268-3.822,3.22-5.819c1.891-3.985,3.345-8.234,3.345-12.479v-0.033c0-1.276,1.12-2.285,2.396-2.253
			c1.189,0.03,2.158,0.952,2.258,2.11c0.226,2.59,0.057,5.172-0.364,7.676c-0.422,2.506-1.085,4.94-1.907,7.302
			c-0.823,2.363-1.802,4.653-2.9,6.883c-0.55,1.115-1.131,2.214-1.745,3.301c-0.631,1.106-1.223,2.117-2.014,3.288
			c-0.532,0.787-1.339,1.276-2.207,1.427l-0.215,0.036c-3.697,0.625-7.563,0.764-11.39,0.201c-3.825-0.549-7.572-1.823-10.942-3.675
			c-3.38-1.846-6.377-4.242-8.986-6.901c-2.609-2.667-4.85-5.597-6.809-8.648c-3.91-6.118-6.758-12.687-9.023-19.364
			c-2.247-6.698-3.924-13.496-5.066-20.476l-0.202-1.328l-0.095-0.696c-0.034-0.222,0.042,0.258,0.031,0.193l-0.007-0.041
			l-0.015-0.083l-0.03-0.164l-0.06-0.329c-0.161-0.877-0.302-1.759-0.438-2.641c-0.262-1.766-0.472-3.541-0.627-5.323
			c-0.305-3.563-0.388-7.152-0.226-10.734c0.314-7.164,1.611-14.292,3.812-21.11c2.2-6.821,5.287-13.332,9.092-19.37
			c1.903-3.02,3.984-5.925,6.241-8.698c1.129-1.387,2.302-2.74,3.529-4.059c0.614-0.659,1.241-1.31,1.888-1.951
			c0.669-0.659,1.264-1.238,2.09-1.959c0.126-0.11,0.259-0.209,0.396-0.297l0.043-0.026c3.152-1.989,6.487-3.847,10.395-5.087
			c1.957-0.603,4.082-1.052,6.422-1.027c2.316,0.015,4.924,0.611,7.104,2.013c2.197,1.375,3.794,3.349,4.879,5.301
			c1.098,1.971,1.769,3.969,2.256,5.926c0.945,3.922,1.181,7.726,1.184,11.468c-0.007,1.872-0.09,3.728-0.237,5.579
			c-0.174,1.87-0.296,3.64-0.745,5.707c-0.702,3.563-1.598,7.102-2.664,10.605c-2.119,7.004-5.051,13.884-9.161,20.159
			c-4.084,6.259-9.388,11.933-15.803,15.97c-3.208,2-6.624,3.629-10.14,4.873c-3.527,1.221-7.146,2.065-10.777,2.561
			c-7.269,1.038-14.527,0.773-21.636-0.055c-3.558-0.422-7.091-1.037-10.556-1.924c-1.735-0.43-3.442-0.969-5.137-1.537
			c-0.843-0.302-1.68-0.616-2.513-0.947l-1.246-0.51C121.726,358.768,121.368,358.401,121.31,357.364z"/>
	</g>
	<g clip-path="url(#SVGID_2_)">
		<path fill="#A1A1A1" d="M232.626,350.526c-1.491,1.048-3.017,2.311-4.373,3.618c-1.496,1.46-2.908,2.989-4.151,4.627
			c-2.482,3.273-4.371,6.895-5.334,10.687c-0.961,3.793-0.993,7.72-0.208,11.546c0.784,3.831,2.378,7.548,4.445,11.05l0.164,0.335
			l0.356,0.633l0.46,0.754c0.323,0.504,0.668,1.005,1.025,1.497c0.72,0.982,1.505,1.923,2.344,2.8
			c1.679,1.753,3.568,3.257,5.606,4.422c2.041,1.161,4.216,2.011,6.488,2.51c2.273,0.495,4.639,0.642,7.035,0.484l-1.979,0.506
			l-0.008,0.004c-0.092,0.052,0.045-0.015,0.089-0.035l0.221-0.115l0.488-0.282c0.333-0.204,0.673-0.433,1.008-0.677
			c0.67-0.487,1.321-1.037,1.937-1.63c1.232-1.189,2.323-2.556,3.236-4.053c1.835-2.996,2.938-6.529,3.345-10.271
			c0.412-3.746,0.15-7.684-0.564-11.603c-0.719-3.924-1.884-7.838-3.329-11.681l-0.115-0.306c-0.032-0.085-0.053-0.177-0.063-0.263
			c-0.011-0.098-0.083-0.413-0.141-0.636c-0.063-0.246-0.135-0.498-0.212-0.749c-0.156-0.504-0.335-1.008-0.533-1.506
			c-0.399-0.996-0.873-1.966-1.42-2.888c-1.095-1.844-2.48-3.494-4.131-4.826c-1.647-1.337-3.562-2.351-5.645-3.007
			C236.762,350.861,234.714,350.593,232.626,350.526z M231.941,346.238c2.622-0.156,5.326-0.012,7.986,0.629
			c2.657,0.627,5.257,1.756,7.549,3.356c2.299,1.594,4.273,3.632,5.854,5.904c0.792,1.138,1.489,2.334,2.095,3.579
			c0.302,0.624,0.582,1.26,0.837,1.913c0.127,0.327,0.249,0.659,0.364,1.001c0.12,0.364,0.214,0.641,0.339,1.142l-0.178-0.568
			c1.84,4.004,3.428,8.178,4.562,12.563c1.124,4.38,1.802,8.99,1.629,13.743c-0.169,4.736-1.248,9.638-3.546,14.1
			c-1.143,2.227-2.573,4.33-4.269,6.229c-0.849,0.949-1.763,1.848-2.753,2.689c-0.496,0.422-1.01,0.828-1.556,1.223
			c-0.273,0.197-0.554,0.391-0.851,0.584l-0.465,0.293c-0.187,0.11-0.282,0.174-0.611,0.346l-0.021,0.01l-0.079,0.039
			c-0.606,0.296-1.268,0.447-1.901,0.467c-3.239,0.087-6.551-0.237-9.764-1.074c-3.211-0.836-6.307-2.182-9.073-3.976
			c-2.774-1.785-5.229-3.974-7.33-6.406c-1.051-1.218-2.014-2.5-2.894-3.841c-0.44-0.671-0.856-1.358-1.25-2.07
			c-0.197-0.356-0.388-0.718-0.576-1.091l-0.28-0.575l-0.308-0.686l0.164,0.335c-2.172-4.26-3.865-8.901-4.561-13.817
			c-0.351-2.451-0.442-4.96-0.239-7.449c0.214-2.488,0.733-4.948,1.522-7.296c1.572-4.709,4.235-8.903,7.461-12.388
			c1.613-1.747,3.343-3.357,5.208-4.781c1.88-1.438,3.76-2.705,5.951-3.852C231.271,346.349,231.613,346.26,231.941,346.238z"/>
	</g>
	<g clip-path="url(#SVGID_2_)">
		<path fill="#A1A1A1" d="M232.931,349.222c-0.546,1.571-1.045,3.207-1.179,4.618c-0.16,1.431,0.093,2.565,0.542,3.178
			c0.44,0.613,1.059,1.098,2.08,1.656c1.002,0.543,2.314,1.022,3.723,1.434l-0.309-0.084c-0.143-0.037-0.08-0.023-0.099-0.023
			c0.002,0,0.012,0,0.023,0l0.096,0.002l0.262,0.008c0.191,0.006,0.4,0,0.614-0.013c0.429-0.03,0.878-0.079,1.328-0.166
			c0.901-0.176,1.802-0.488,2.687-0.897c1.761-0.841,3.464-2.126,5.012-3.76c1.567-1.618,3.102-3.558,4.424-5.648
			c1.339-2.088,2.863-4.361,3.863-6.682v-0.003c0-1.781,2.414-2.739,4.196-2.139c1.364,0.459,2.187,1.699,2.255,3.056l-0.025,0.109
			c0.057,1.191,0.164,2.573,0.306,3.869c0.145,1.315,0.314,2.633,0.518,3.945c0.409,2.624,0.925,5.23,1.563,7.796
			c1.277,5.125,3.017,10.113,5.398,14.659c2.375,4.536,5.427,8.505,9.208,11.514c3.764,3.028,8.251,5.35,13.046,5.35h0.002
			l-3.906,1.784l0.372-0.567c0.151-0.268,0.301-0.521,0.448-0.813c0.295-0.583,0.569-1.183,0.839-1.806
			c0.542-1.247,1.017-2.548,1.432-3.883c0.838-2.674,1.407-5.467,1.829-8.301c0.823-5.679,0.912-11.544,0.441-17.405
			c-0.429-5.871-1.471-11.735-2.821-17.557c-0.684-2.909-1.497-5.803-2.374-8.677c-0.914-2.865-1.727-5.763-1.727-9.042v-0.011
			c0-0.872,0.734-1.577,1.606-1.575c0.444,0.001,0.861,0.188,1.147,0.484c2.308,2.401,3.673,5.244,4.74,8.18
			c1.105,2.925,2.128,5.89,3.045,8.896c1.855,6.008,3.208,12.208,4.01,18.535c0.754,6.328,0.915,12.805,0.096,19.281
			c-0.404,3.237-1.087,6.462-2.054,9.646c-0.488,1.592-1.052,3.173-1.725,4.74c-0.337,0.783-0.714,1.558-1.123,2.336
			c-0.206,0.389-0.421,0.777-0.654,1.173l-0.367,0.602c-0.146,0.229-0.229,0.364-0.482,0.72l-0.023-0.172
			c-0.909,1.277-2.434,2.43-3.884,1.43h-0.002c-6.136,0-12.172-3.313-16.911-7.326c-4.78-3.988-8.305-8.95-10.924-14.216
			c-2.623-5.29-4.403-10.785-5.672-16.38c-0.631-2.8-1.129-5.593-1.508-8.425c-0.188-1.417-0.348-2.824-0.474-4.252
			c-0.125-1.447-0.328-2.808-0.369-4.372l6.525,1.032v0.003c0,2.854-1.367,5.657-2.579,8.415c-1.228,2.749-2.768,5.434-4.861,7.894
			c-2.101,2.433-4.714,4.67-7.937,6.124c-1.599,0.737-3.318,1.261-5.12,1.527c-0.901,0.133-1.812,0.208-2.751,0.189
			c-0.471-0.008-0.943-0.034-1.434-0.086c-0.246-0.025-0.494-0.058-0.756-0.1l-0.41-0.072l-0.229-0.047l-0.349-0.082l-0.037-0.009
			c-0.089-0.021-0.188-0.051-0.272-0.08c-1.937-0.701-3.914-1.62-5.805-3.119c-0.944-0.739-1.844-1.667-2.619-2.773
			c-0.755-1.112-1.361-2.442-1.609-3.824c-0.271-1.378-0.189-2.758,0.09-3.97c0.294-1.218,0.775-2.283,1.35-3.219
			c0.58-0.936,1.246-1.749,1.981-2.461c0.747-0.718,1.496-1.323,2.42-1.871c0.625-0.369,1.431-0.163,1.801,0.462
			c0.204,0.344,0.232,0.743,0.112,1.095L232.931,349.222z"/>
	</g>
	<g clip-path="url(#SVGID_2_)">
		<path fill="#A1A1A1" d="M289.635,365.443c3.404-0.949,6.905-2.294,10.198-3.813c3.311-1.533,6.497-3.304,9.459-5.337
			c5.93-4.018,11.026-9.21,13.761-15.415c1.367-3.09,2.147-6.388,2.339-9.754c0.193-3.367-0.206-6.796-1.044-10.165
			c-0.807-3.225-2.205-6.569-3.861-9.536c-0.837-1.48-1.767-2.881-2.767-4.041c-0.979-1.155-2.113-2.053-2.854-2.299l-0.04-0.016
			l-0.36-0.171l-0.537-0.253l-0.653-0.28c-0.439-0.19-0.889-0.357-1.33-0.53c-0.887-0.33-1.776-0.576-2.608-0.71
			c-0.833-0.142-1.604-0.1-2.216,0.067c-0.612,0.181-1.064,0.45-1.476,0.859c-0.829,0.791-1.475,2.426-1.737,4.343
			c-0.139,0.956-0.202,1.976-0.207,3.021c-0.003,0.522,0.009,1.053,0.037,1.586l0.167,1.507c1.13,9.061,3.118,18.16,6.271,26.571
			c1.597,4.186,3.513,8.22,5.937,11.684c2.423,3.444,5.378,6.296,8.749,7.556c1.68,0.632,3.446,0.93,5.301,0.849
			c1.851-0.076,3.772-0.515,5.68-1.22c3.831-1.402,7.578-3.768,11.078-6.512l-0.532,0.528c0.109-0.126,0.358-0.45,0.54-0.7
			l0.591-0.835c0.395-0.567,0.772-1.16,1.144-1.76c0.739-1.203,1.452-2.441,2.114-3.714c1.302-2.555,2.48-5.213,3.417-7.992
			c0.952-2.774,1.661-5.67,2.056-8.643c0.382-2.969,0.496-6.021,0.168-9.046c-0.051-0.458,0.278-0.87,0.736-0.922
			c0.425-0.047,0.813,0.241,0.907,0.648c0.679,3.065,1.252,6.197,1.48,9.401c0.239,3.199,0.198,6.461-0.2,9.712
			c-0.414,3.245-1.169,6.48-2.354,9.576c-0.582,1.553-1.255,3.077-2.042,4.558c-0.393,0.741-0.815,1.469-1.263,2.195
			c-0.223,0.363-0.459,0.722-0.707,1.082c-0.263,0.38-0.468,0.681-0.842,1.157c-0.131,0.167-0.276,0.315-0.432,0.446l-0.1,0.082
			c-3.814,3.155-7.993,6.112-12.982,8.078c-2.492,0.96-5.202,1.653-8.06,1.814c-2.848,0.167-5.84-0.245-8.558-1.307
			c-2.729-1.041-5.148-2.643-7.193-4.473c-2.055-1.833-3.753-3.905-5.217-6.051c-2.922-4.305-4.977-8.897-6.643-13.534
			c-1.658-4.644-2.913-9.354-3.922-14.09c-0.995-4.744-1.794-9.488-2.323-14.32l-0.095-0.914l-0.044-0.463l-0.022-0.249
			l-0.025-0.382c-0.024-0.642-0.039-1.289-0.035-1.944c0.008-1.309,0.084-2.646,0.284-4.021c0.2-1.372,0.524-2.791,1.096-4.231
			c0.57-1.431,1.421-2.912,2.682-4.172c1.247-1.267,2.899-2.209,4.548-2.682c1.653-0.496,3.27-0.602,4.782-0.574
			c1.518,0.039,2.948,0.272,4.317,0.613c0.687,0.165,1.351,0.384,2.007,0.625c0.33,0.117,0.65,0.258,0.976,0.4
			c0.346,0.155,0.605,0.271,1.058,0.507l-0.4-0.187c2.781,1.196,4.471,2.996,5.91,4.711c1.414,1.749,2.515,3.556,3.488,5.39
			c1.906,3.688,3.356,7.416,4.283,11.548c0.869,3.986,1.248,8.16,0.885,12.334c-0.345,4.171-1.482,8.313-3.331,12.063
			c-1.84,3.758-4.342,7.114-7.2,10c-2.859,2.894-6.062,5.343-9.423,7.442c-3.375,2.085-6.908,3.827-10.529,5.299
			c-3.646,1.465-7.282,2.682-11.206,3.577c-1.265,0.289-2.524-0.502-2.813-1.768c-0.28-1.226,0.456-2.447,1.653-2.783
			L289.635,365.443z"/>
	</g>
	<g clip-path="url(#SVGID_2_)">
		<path fill="#A1A1A1" d="M400.121,309.23c-0.609-6.233-0.158-12.052,0.164-17.96c0.125-2.947,0.154-5.896,0.078-8.836
			c-0.054-2.94-0.19-5.876-0.454-8.795c-0.276-2.918-0.605-5.826-1.083-8.707c-0.488-2.878-1.068-5.735-1.786-8.555
			c-1.447-5.636-3.437-11.109-6.026-16.316l3.614-1.688v0.001c2.232,5.298,5.066,10.547,8.351,15.279
			c1.655,2.367,3.447,4.619,5.417,6.632c1.967,2.009,4.118,3.79,6.435,5.069c2.312,1.283,4.78,2.023,7.218,2
			c2.438-0.012,4.851-0.771,7.099-2.066c2.25-1.294,4.337-3.068,6.239-5.08c1.908-2.011,3.648-4.253,5.262-6.608l0-0.001
			l-0.612,1.755c0.064-2.501-0.023-5.267-0.176-7.914c-0.156-2.676-0.395-5.354-0.705-8.022c-0.603-5.34-1.471-10.655-2.629-15.9
			c-2.316-10.489-5.754-20.721-10.434-30.319c-4.657-9.604-10.542-18.592-17.677-26.467c-7.131-7.871-15.416-14.686-24.578-20.115
			l0.641,0.3c-2.225-0.758-5.306-1.144-6.799-0.611c-0.371,0.118-0.612,0.26-0.772,0.398c-0.16,0.142-0.28,0.288-0.402,0.563
			c-0.253,0.533-0.374,1.602-0.251,2.794c0.242,2.425,1.157,5.207,2.263,7.883c1.119,2.698,2.467,5.379,3.913,8.024l-0.164-0.267
			c5.982,8.705,12.582,17.234,19.484,25.343c6.939,8.099,14.229,15.914,22.203,22.871c3.986,3.471,8.142,6.729,12.521,9.563
			c4.375,2.819,8.994,5.248,13.812,6.703c4.816,1.421,9.765,1.9,14.499,0.733c2.369-0.568,4.683-1.551,6.892-2.881
			c2.229-1.311,4.298-3,6.395-4.801c-1.105,2.539-2.707,4.868-4.696,6.929c-2,2.043-4.464,3.747-7.223,4.872
			c-2.757,1.12-5.767,1.672-8.728,1.66c-2.968,0.006-5.877-0.504-8.651-1.283c-5.561-1.57-10.631-4.148-15.373-7.073
			c-4.74-2.944-9.162-6.284-13.381-9.819c-8.42-7.098-16.088-14.934-23.279-23.141c-7.186-8.243-13.927-16.722-20.282-25.729
			l-0.071-0.1l-0.093-0.167c-1.566-2.785-3.052-5.641-4.352-8.665c-1.272-3.042-2.465-6.187-2.883-9.955
			c-0.168-1.879-0.19-4.023,0.782-6.367c0.483-1.153,1.285-2.305,2.299-3.181c1.011-0.886,2.176-1.475,3.28-1.834
			c2.232-0.71,4.242-0.696,6.1-0.535c0.931,0.09,1.83,0.235,2.712,0.422c0.441,0.094,0.878,0.198,1.315,0.314
			c0.458,0.124,0.827,0.227,1.388,0.417l0.311,0.105l0.331,0.194c9.788,5.747,18.781,12.955,26.392,21.42
			c7.63,8.447,13.943,18.038,18.824,28.253c4.87,10.229,8.38,21.034,10.704,32.044c1.158,5.509,2.03,11.072,2.586,16.67
			c0.268,2.801,0.462,5.608,0.57,8.427c0.102,2.846,0.147,5.585,0.01,8.58l-0.045,0.99l-0.567,0.767l0,0.001
			c-1.86,2.509-3.883,4.938-6.176,7.186c-2.288,2.241-4.867,4.315-7.867,5.897c-2.977,1.58-6.488,2.591-10.048,2.465
			c-3.563-0.101-6.952-1.322-9.792-3.045c-2.862-1.728-5.271-3.915-7.4-6.25c-2.129-2.344-3.978-4.861-5.655-7.456
			c-1.674-2.599-3.172-5.281-4.537-8.021c-1.365-2.756-2.593-5.5-3.689-8.444v-0.001l3.614-1.688
			c3.307,5.244,5.716,11.031,7.393,16.972c0.848,2.971,1.521,5.985,2.016,9.023c0.504,3.036,0.885,6.089,1.08,9.149
			c0.207,3.061,0.303,6.122,0.268,9.179c-0.056,3.058-0.221,6.106-0.485,9.145c-0.264,3.035-0.591,6.071-1.328,9.042
			C402.709,303.569,401.745,306.51,400.121,309.23z"/>
	</g>
	<g clip-path="url(#SVGID_2_)">
		<path fill="#A1A1A1" d="M368.886,204.816c5.566-4.087,11.093-8.214,16.425-12.465c5.341-4.249,10.51-8.646,15.376-13.304
			c4.855-4.666,9.422-9.578,13.445-14.902c4.028-5.326,7.466-11.058,10.127-17.41l2.136,0.504
			c-0.537,7.214-3.221,14.226-6.875,20.478c-3.678,6.277-8.35,11.885-13.517,16.861c-5.174,4.981-10.849,9.364-16.842,13.185
			c-6.023,3.785-12.293,7.104-19.068,9.451L368.886,204.816z"/>
	</g>
	<ellipse clip-path="url(#SVGID_2_)" fill="#A1A1A1" cx="388.527" cy="226.226" rx="4.23" ry="5.11"/>
	
		<line clip-path="url(#SVGID_2_)" fill="none" stroke="#A1A1A1" stroke-miterlimit="10" x1="434.031" y1="265.637" x2="686.375" y2="271.577"/>
	
		<line clip-path="url(#SVGID_2_)" fill="none" stroke="#A1A1A1" stroke-miterlimit="10" x1="461.196" y1="239.078" x2="657.301" y2="243.397"/>
	
		<line clip-path="url(#SVGID_2_)" fill="none" stroke="#A1A1A1" stroke-miterlimit="10" x1="507.276" y1="213.724" x2="618.534" y2="217.444"/>
	
		<line clip-path="url(#SVGID_2_)" fill="none" stroke="#A1A1A1" stroke-width="3" stroke-miterlimit="10" x1="417.519" y1="286.973" x2="710.351" y2="297.224"/>
	
		<line clip-path="url(#SVGID_2_)" fill="none" stroke="#A1A1A1" stroke-miterlimit="10" x1="388.527" y1="322.186" x2="736.192" y2="317.204"/>
	
		<line clip-path="url(#SVGID_2_)" fill="none" stroke="#A1A1A1" stroke-miterlimit="10" x1="361.815" y1="348.349" x2="772.896" y2="335.607"/>
	
		<line clip-path="url(#SVGID_2_)" fill="none" stroke="#A1A1A1" stroke-miterlimit="10" x1="332.059" y1="371.938" x2="836.52" y2="344.637"/>
	
		<line clip-path="url(#SVGID_2_)" fill="none" stroke="#A1A1A1" stroke-miterlimit="10" x1="307.171" y1="387.531" x2="951.744" y2="371.938"/>
	<g clip-path="url(#SVGID_2_)">
		<path fill="#A1A1A1" d="M263.344,404.804l410.828-1.533l205.415-0.69l102.707-0.346l51.354-0.173
			c17.117-0.067,34.235-0.096,51.355,0.307c-17.115,0.566-34.233,0.701-51.351,0.799l-51.353,0.319l-102.706,0.639l-205.412,1.276
			l-410.824,2.402L263.344,404.804z"/>
	</g>
	<g clip-path="url(#SVGID_2_)">
		<polygon fill="#A1A1A1" points="59,372.5 89,372 89,373 		"/>
	</g>
	<g clip-path="url(#SVGID_2_)">
		<polygon fill="#A1A1A1" points="59.004,396.337 129.032,399.709 128.976,400.707 		"/>
	</g>
	<g clip-path="url(#SVGID_2_)">
		<path fill="#A1A1A1" d="M59,426.5c21.375-0.625,42.75-0.501,64.125-0.545l64.125-0.057l128.25,0.107L572,426h256.5h128.25h64.125
			c21.375,0,42.75-0.793,64.125,0.5c-21.375,1.293-42.75,0.5-64.125,0.5H956.75H828.5H572l-256.5-0.006l-128.25-0.002l-64.125-0.002
			C101.75,426.946,80.375,427.125,59,426.5z"/>
	</g>
	
		<line clip-path="url(#SVGID_2_)" fill="none" stroke="#A1A1A1" stroke-width="3" stroke-miterlimit="10" x1="520.332" y1="206.015" x2="536.483" y2="561.338"/>
	
		<line clip-path="url(#SVGID_2_)" fill="none" stroke="#A1A1A1" stroke-width="2" stroke-miterlimit="10" x1="542.796" y1="201.767" x2="556.975" y2="561.338"/>
	
		<line clip-path="url(#SVGID_2_)" fill="none" stroke="#A1A1A1" stroke-width="3" stroke-miterlimit="10" x1="564.999" y1="200.986" x2="572.004" y2="561.338"/>
	
		<line clip-path="url(#SVGID_2_)" fill="none" stroke="#A1A1A1" stroke-width="2" stroke-miterlimit="10" x1="592.374" y1="206.015" x2="587.033" y2="561.338"/>
	
		<line clip-path="url(#SVGID_2_)" fill="none" stroke="#A1A1A1" stroke-width="2" stroke-miterlimit="10" x1="618.534" y1="217.444" x2="605.621" y2="561.338"/>
	
		<line clip-path="url(#SVGID_2_)" fill="none" stroke="#A1A1A1" stroke-width="2" stroke-miterlimit="10" x1="641.687" y1="231.336" x2="625.107" y2="561.338"/>
	
		<line clip-path="url(#SVGID_2_)" fill="none" stroke="#A1A1A1" stroke-width="2" stroke-miterlimit="10" x1="657.301" y1="243.397" x2="647.15" y2="561.338"/>
	
		<line clip-path="url(#SVGID_2_)" fill="none" stroke="#A1A1A1" stroke-width="3" stroke-miterlimit="10" x1="677.113" y1="262.38" x2="667.73" y2="561.338"/>
	
		<line clip-path="url(#SVGID_2_)" fill="none" stroke="#A1A1A1" stroke-width="2" stroke-miterlimit="10" x1="699.863" y1="286.973" x2="686.375" y2="561.338"/>
	
		<line clip-path="url(#SVGID_2_)" fill="none" stroke="#A1A1A1" stroke-width="2" stroke-miterlimit="10" x1="501.266" y1="213.724" x2="520.332" y2="561.338"/>
	<g clip-path="url(#SVGID_2_)">
		<path fill="#A1A1A1" d="M480.273,225.765c1.319,27.967,2.532,55.941,3.938,83.904l4.171,83.892l4.328,83.884
			c1.538,27.957,3.105,55.911,5.146,83.841l-1.997,0.105c-0.89-27.99-2.253-55.956-3.646-83.92l-4.464-83.877l-4.62-83.868
			c-1.524-27.957-3.242-55.903-4.853-83.856L480.273,225.765z"/>
	</g>
	<g clip-path="url(#SVGID_2_)">
		<path fill="#A1A1A1" d="M462.194,239.025l3.992,80.577l4.125,80.57l4.152,80.568c1.435,26.854,2.922,53.704,4.604,80.544
			l-1.997,0.105c-1.13-26.87-2.456-53.729-3.833-80.586l-4.284-80.562l-4.312-80.56l-4.444-80.553L462.194,239.025z"/>
	</g>
	<g clip-path="url(#SVGID_2_)">
		<path fill="#A1A1A1" d="M439.167,262.284l4.521,74.756l4.668,74.746c1.581,24.914,3.059,49.835,4.723,74.743
			c1.612,24.912,3.334,49.817,5.196,74.713l-2.994,0.191c-1.323-24.931-2.786-49.852-4.358-74.767
			c-1.521-24.917-3.227-49.823-4.832-74.735l-4.886-74.732l-5.033-74.724L439.167,262.284z"/>
	</g>
	<g clip-path="url(#SVGID_2_)">
		<path fill="#A1A1A1" d="M415.254,291.927c1.824,22.455,3.582,44.915,5.526,67.359l5.709,67.344
			c1.904,22.448,3.778,44.898,5.819,67.334c1.977,22.441,4.121,44.868,6.358,67.287l-1.992,0.174
			c-1.665-22.469-3.423-44.93-5.348-67.375c-1.861-22.452-3.889-44.889-5.888-67.328l-5.996-67.318
			c-1.958-22.443-4.102-44.87-6.18-67.303L415.254,291.927z"/>
	</g>
	<g clip-path="url(#SVGID_2_)">
		<path fill="#A1A1A1" d="M389.524,322.105c1.485,19.938,2.949,39.879,4.537,59.809l4.674,59.797l2.351,29.898l2.443,29.89
			c1.646,19.926,3.361,39.845,5.152,59.759l-1.993,0.16c-1.402-19.945-2.88-39.884-4.426-59.817l-2.346-29.897l-2.438-29.891
			l-4.904-59.779c-1.604-19.929-3.333-39.848-5.041-59.768L389.524,322.105z"/>
	</g>
	<g clip-path="url(#SVGID_2_)">
		<path fill="#A1A1A1" d="M362.813,348.279l1.613,26.641l1.704,26.634c1.115,17.757,2.383,35.504,3.568,53.256l3.777,53.242
			l2.015,26.612l2.132,26.604l-1.995,0.139l-1.57-26.644l-1.688-26.635l-3.627-53.252c-1.283-17.746-2.483-35.498-3.836-53.238
			l-1.998-26.613l-2.089-26.607L362.813,348.279z"/>
	</g>
	<g clip-path="url(#SVGID_2_)">
		<polygon fill="#A1A1A1" points="333.054,371.835 335.273,395.532 337.587,419.221 342.402,466.577 347.416,513.914 
			349.935,537.58 352.569,561.235 350.58,561.44 348.335,537.745 345.975,514.063 341.231,466.698 336.289,419.354 333.723,395.692 
			331.064,372.04 		"/>
	</g>
	<g clip-path="url(#SVGID_2_)">
		<path fill="#A1A1A1" d="M308.166,387.432l4.049,43.48c1.329,14.496,2.748,28.982,4.001,43.485
			c1.009,14.527,2.806,28.977,4.318,43.454c1.584,14.47,3.242,28.933,4.982,43.387l-1.99,0.199
			c-1.151-14.514-2.386-29.019-3.692-43.517c-1.38-14.49-2.475-29.009-4.358-43.449c-1.638-14.465-3.11-28.946-4.674-43.418
			l-4.626-43.423L308.166,387.432z"/>
	</g>
	<g opacity="0.8" clip-path="url(#SVGID_2_)">
		<path fill="#A1A1A1" d="M286.442,400.129l1.309,20.164l1.43,20.154l3.096,40.289c1.112,13.424,2.144,26.854,3.321,40.271
			l1.745,20.13l1.843,20.121l-1.994,0.158l-1.343-20.161l-1.441-20.153c-0.947-13.437-2.039-26.861-3.051-40.293l-3.275-40.275
			l-1.756-20.129l-1.876-20.118L286.442,400.129z"/>
	</g>
	<g clip-path="url(#SVGID_2_)">
		<polygon fill="#A1A1A1" points="264.351,406.277 264.601,425.663 264.958,445.047 265.845,483.809 266.974,522.564 
			267.633,541.939 268.41,561.312 266.411,561.364 266.173,541.978 265.817,522.595 264.916,483.833 263.773,445.078 
			263.116,425.702 262.352,406.33 		"/>
	</g>
	<g clip-path="url(#SVGID_2_)">
		<path fill="#A1A1A1" d="M237,414c-0.212,12.25-0.292,24.5-0.381,36.75c-0.013,12.25-0.103,24.5-0.052,36.75
			c0.037,12.25,0.017,24.5,0.114,36.75c0.051,12.25,0.181,24.5,0.319,36.75h-2c0.139-12.25,0.268-24.5,0.319-36.75
			c0.098-12.25,0.078-24.5,0.114-36.75c0.051-12.25-0.04-24.5-0.052-36.75c-0.09-12.25-0.169-24.5-0.381-36.75H237z"/>
	</g>
	<g clip-path="url(#SVGID_2_)">
		<path fill="#A1A1A1" d="M215.872,414.006c-0.054,12.289,0.045,24.573,0.302,36.853c0.094,6.14,0.282,12.277,0.419,18.416
			l0.559,18.412c0.436,12.272,0.899,24.545,1.501,36.812c0.569,12.269,1.288,24.531,2.157,36.789l-2.998,0.102
			c0.046-12.289-0.059-24.573-0.313-36.852c-0.221-12.28-0.581-24.555-0.968-36.829l-0.676-18.408
			c-0.274-6.135-0.498-12.271-0.815-18.404c-0.566-12.268-1.291-24.53-2.167-36.788L215.872,414.006z"/>
	</g>
	<g clip-path="url(#SVGID_2_)">
		<path fill="#A1A1A1" d="M190.257,414.009c0.594,12.273,1.132,24.549,1.626,36.827l0.715,18.417c0.122,3.07,0.247,6.14,0.242,9.215
			c0.015,3.074-0.004,6.15,0.133,9.22l1.996,36.809l1.093,18.399l1.208,18.395l-1.998,0.096l-0.545-18.426l-0.66-18.421
			l-1.511-36.832c-0.155-3.067-0.466-6.128-0.744-9.19c-0.298-3.062-0.465-6.129-0.635-9.195l-1.038-18.403
			c-0.675-12.269-1.306-24.54-1.881-36.813L190.257,414.009z"/>
	</g>
	<g clip-path="url(#SVGID_2_)">
		<path fill="#A1A1A1" d="M76.183,352.271l3.284,104.539c0.527,17.424,0.837,34.855,1.653,52.269
			c0.369,8.708,0.789,17.414,1.286,26.117c0.453,8.705,0.999,17.406,1.645,26.104l-1.999,0.074
			c-0.009-8.721-0.12-17.438-0.322-26.153c-0.159-8.716-0.395-17.429-0.681-26.14c-0.496-17.425-1.497-34.831-2.281-52.246
			l-4.583-104.49L76.183,352.271z"/>
	</g>
	<g clip-path="url(#SVGID_2_)">
		<path fill="#A1A1A1" d="M113.112,561.382c-0.03-3.627-0.097-7.252-0.173-10.876c-0.082-3.625-0.116-7.251-0.238-10.874
			l-0.642-21.739c-0.599-14.485-1.029-28.978-1.831-43.454l-4.721-86.863l1.998-0.088l2.883,86.943
			c0.466,14.491,1.303,28.967,1.971,43.449l1.26,21.712c0.195,3.619,0.478,7.235,0.712,10.853c0.241,3.617,0.491,7.234,0.778,10.85
			L113.112,561.382z"/>
	</g>
	<g clip-path="url(#SVGID_2_)">
		<path fill="#A1A1A1" d="M135.305,402.318c0.632,13.249,1.161,26.503,1.705,39.756l0.812,19.88
			c0.243,6.628,0.386,13.261,0.569,19.892c0.175,6.631,0.493,13.255,0.871,19.876l1.093,19.866
			c0.831,13.238,1.682,26.477,2.811,39.7l-1.998,0.1c-0.181-13.271-0.641-26.528-1.119-39.784l-0.872-19.877
			c-0.276-6.627-0.614-13.25-1.094-19.866c-0.472-6.616-0.984-13.231-1.396-19.851l-1.152-19.862
			c-0.767-13.242-1.548-26.483-2.226-39.729L135.305,402.318z"/>
	</g>
	<g clip-path="url(#SVGID_2_)">
		<path fill="#A1A1A1" d="M165.563,410.478c0.583,12.564,1.067,25.133,1.464,37.704c0.311,12.575,0.973,25.137,0.605,37.737
			c-0.09,6.297,0.346,12.574,0.581,18.858l0.827,18.849l1.026,18.841c0.391,6.278,0.765,12.558,1.245,18.833l-1.999,0.076
			c0-6.293-0.104-12.583-0.192-18.873l-0.411-18.864l-0.61-18.857c-0.243-6.283-0.287-12.575-0.855-18.847
			c-1.326-12.536-1.622-25.112-2.269-37.674c-0.561-12.565-1.036-25.135-1.41-37.707L165.563,410.478z"/>
	</g>
	
		<line clip-path="url(#SVGID_2_)" fill="none" stroke="#A1A1A1" stroke-width="2" stroke-miterlimit="10" x1="724.833" y1="309.23" x2="715.45" y2="561.338"/>
	
		<line clip-path="url(#SVGID_2_)" fill="none" stroke="#A1A1A1" stroke-width="2" stroke-miterlimit="10" x1="745.342" y1="561.338" x2="747.788" y2="324.184"/>
	
		<line clip-path="url(#SVGID_2_)" fill="none" stroke="#A1A1A1" stroke-width="2" stroke-miterlimit="10" x1="879" y1="336" x2="879" y2="561"/>
	
		<line clip-path="url(#SVGID_2_)" fill="none" stroke="#A1A1A1" stroke-width="2" stroke-miterlimit="10" x1="772" y1="336" x2="772" y2="561"/>
	
		<line clip-path="url(#SVGID_2_)" fill="none" stroke="#A1A1A1" stroke-width="2" stroke-miterlimit="10" x1="795" y1="342" x2="795" y2="557"/>
	
		<line clip-path="url(#SVGID_2_)" fill="none" stroke="#A1A1A1" stroke-width="2" stroke-miterlimit="10" x1="817" y1="345" x2="817" y2="561"/>
	
		<line clip-path="url(#SVGID_2_)" fill="none" stroke="#A1A1A1" stroke-width="2" stroke-miterlimit="10" x1="836.52" y1="344.637" x2="842.531" y2="561.338"/>
	
		<line clip-path="url(#SVGID_2_)" fill="none" stroke="#A1A1A1" stroke-width="2" stroke-miterlimit="10" x1="855.858" y1="341.627" x2="862.57" y2="561.338"/>
	
		<line clip-path="url(#SVGID_2_)" fill="none" stroke="#A1A1A1" stroke-width="2" stroke-miterlimit="10" x1="899" y1="349" x2="899" y2="561"/>
	
		<line clip-path="url(#SVGID_2_)" fill="none" stroke="#A1A1A1" stroke-width="2" stroke-miterlimit="10" x1="934.167" y1="363.718" x2="928.699" y2="561.338"/>
	
		<line clip-path="url(#SVGID_2_)" fill="none" stroke="#A1A1A1" stroke-width="2" stroke-miterlimit="10" x1="963.572" y1="371.938" x2="951.744" y2="561.338"/>
	<g clip-path="url(#SVGID_2_)">
		<path fill="#A1A1A1" d="M986.792,375.896c-0.457,15.458-0.924,30.915-1.467,46.37l-1.67,46.362l-0.428,11.591
			c-0.145,3.863-0.589,7.717-0.855,11.576c-0.235,3.861-0.259,7.729-0.385,11.593l-0.312,11.594
			c-0.414,15.459-0.716,30.922-0.878,46.389l-1.998-0.064c0.837-15.445,1.534-30.896,2.119-46.349l0.438-11.59
			c0.123-3.864,0.35-7.726,0.363-11.593c-0.016-3.868-0.211-7.743-0.105-11.607l0.321-11.594l1.327-46.375
			c0.456-15.457,0.988-30.912,1.53-46.367L986.792,375.896z"/>
	</g>
	<g clip-path="url(#SVGID_2_)">
		<path fill="#A1A1A1" d="M1013,379c-0.168,7.583-0.242,15.167-0.364,22.75l-0.212,22.75c-0.143,15.167-0.117,30.333-0.184,45.5
			l0.153,45.5l0.219,22.75c0.13,7.583,0.208,15.167,0.388,22.75h-2c0.18-7.583,0.258-15.167,0.388-22.75l0.219-22.75l0.153-45.5
			c-0.066-15.167-0.041-30.333-0.184-45.5l-0.212-22.75c-0.122-7.583-0.196-15.167-0.364-22.75H1013z"/>
	</g>
	<g clip-path="url(#SVGID_2_)">
		<path fill="#A1A1A1" d="M1040,381l-0.029,22.5l-0.132,22.5l-0.282,45c-0.034,3.75,0,7.5-0.188,11.25
			c-0.165,3.75-0.386,7.5-0.367,11.25c0.026,7.5,0.021,15,0.102,22.5c0.155,15,0.379,30,0.897,45h-2c0.519-15,0.742-30,0.897-45
			c0.081-7.5,0.075-15,0.102-22.5c0.019-3.75-0.202-7.5-0.367-11.25c-0.188-3.75-0.154-7.5-0.188-11.25l-0.282-45l-0.132-22.5
			L1038,381H1040z"/>
	</g>
	<g clip-path="url(#SVGID_2_)">
		<path fill="#A1A1A1" d="M1063.985,378.091l0.599,22.903l0.502,22.905l0.972,45.813l0.225,11.454
			c0.024,3.819-0.19,7.645-0.161,11.464c0.192,7.635,0.413,15.269,0.693,22.9c0.56,15.265,1.211,30.526,2.156,45.78l-2,0.055
			c0.114-15.283-0.065-30.558-0.336-45.83c-0.135-7.636-0.33-15.271-0.553-22.904c-0.179-3.814-0.603-7.623-0.785-11.438
			l-0.398-11.448l-1.521-45.798l-0.745-22.899l-0.647-22.901L1063.985,378.091z"/>
	</g>
	<g clip-path="url(#SVGID_2_)">
		<path fill="#A1A1A1" d="M59.004,449.476c21.385-0.552,42.757-0.029,64.133,0.197l64.125,0.823l128.25,1.646l256.499,3.293
			l256.5,3.293l128.25,1.646l64.125,0.823l32.063,0.412c10.687,0.151,21.374,0.313,32.056,0.917
			c-10.693,0.331-21.381,0.222-32.069,0.102l-32.063-0.404l-64.125-0.809l-128.25-1.616l-256.5-3.232l-256.501-3.233l-128.25-1.616
			l-64.125-0.808C101.747,450.593,80.369,450.571,59.004,449.476z"/>
	</g>
	
		<line opacity="0.8" clip-path="url(#SVGID_2_)" fill="none" stroke="#A1A1A1" stroke-width="2" stroke-miterlimit="10" x1="59" y1="540" x2="1085" y2="540"/>
	
		<line clip-path="url(#SVGID_2_)" fill="none" stroke="#FFFFFF" stroke-width="6" stroke-miterlimit="10" x1="59.004" y1="566.162" x2="1085.004" y2="576.194"/>
	
		<line clip-path="url(#SVGID_2_)" fill="none" stroke="#FFFFFF" stroke-width="2" stroke-miterlimit="10" x1="59.004" y1="599.27" x2="1085.004" y2="590.24"/>
	
		<line clip-path="url(#SVGID_2_)" fill="none" stroke="#A1A1A1" stroke-miterlimit="10" x1="871.781" y1="159.602" x2="849.44" y2="124.906"/>
	
		<line clip-path="url(#SVGID_2_)" fill="none" stroke="#A1A1A1" stroke-miterlimit="10" x1="832.143" y1="142.254" x2="860.611" y2="171.91"/>
	
		<line clip-path="url(#SVGID_2_)" fill="none" stroke="#A1A1A1" stroke-miterlimit="10" x1="818.594" y1="167.674" x2="853.578" y2="185.556"/>
	
		<line clip-path="url(#SVGID_2_)" fill="none" stroke="#A1A1A1" stroke-miterlimit="10" x1="812.939" y1="199.505" x2="849.775" y2="201.767"/>
	
		<line clip-path="url(#SVGID_2_)" fill="none" stroke="#A1A1A1" stroke-miterlimit="10" x1="815.511" y1="231.336" x2="850.137" y2="225.11"/>
	
		<line clip-path="url(#SVGID_2_)" fill="none" stroke="#A1A1A1" stroke-miterlimit="10" x1="823.768" y1="262.38" x2="855.858" y2="249.317"/>
	
		<line clip-path="url(#SVGID_2_)" fill="none" stroke="#A1A1A1" stroke-miterlimit="10" x1="836.52" y1="289.778" x2="865.692" y2="271.577"/>
	
		<line clip-path="url(#SVGID_2_)" fill="none" stroke="#A1A1A1" stroke-miterlimit="10" x1="855.858" y1="314.646" x2="879.102" y2="292.098"/>
	
		<line clip-path="url(#SVGID_2_)" fill="none" stroke="#A1A1A1" stroke-miterlimit="10" x1="940.039" y1="171.91" x2="972.443" y2="147.576"/>
	
		<line clip-path="url(#SVGID_2_)" fill="none" stroke="#A1A1A1" stroke-miterlimit="10" x1="948.541" y1="195.312" x2="986.179" y2="185.556"/>
	<line clip-path="url(#SVGID_2_)" fill="none" stroke="#A1A1A1" stroke-miterlimit="10" x1="952" y1="227.5" x2="985" y2="227.5"/>
	
		<line clip-path="url(#SVGID_2_)" fill="none" stroke="#A1A1A1" stroke-miterlimit="10" x1="948.521" y1="249.317" x2="974.142" y2="260.364"/>
	
		<line clip-path="url(#SVGID_2_)" fill="none" stroke="#A1A1A1" stroke-miterlimit="10" x1="941.248" y1="271.577" x2="956.453" y2="286.973"/>
	
		<line clip-path="url(#SVGID_2_)" fill="none" stroke="#A1A1A1" stroke-miterlimit="10" x1="927.069" y1="292.098" x2="939.607" y2="303.372"/>
	
		<line clip-path="url(#SVGID_2_)" fill="none" stroke="#A1A1A1" stroke-miterlimit="10" x1="914.675" y1="303.372" x2="924.085" y2="314.646"/>
	
		<line clip-path="url(#SVGID_2_)" fill="none" stroke="#A1A1A1" stroke-miterlimit="10" x1="868.6" y1="326.778" x2="888.96" y2="303.372"/>
	
		<line clip-path="url(#SVGID_2_)" fill="none" stroke="#A1A1A1" stroke-miterlimit="10" x1="911.713" y1="322.186" x2="903.149" y2="348.649"/>
	
		<line clip-path="url(#SVGID_2_)" fill="none" stroke="#A1A1A1" stroke-miterlimit="10" x1="936.62" y1="335.607" x2="928.699" y2="361.744"/>
	<line clip-path="url(#SVGID_2_)" fill="none" stroke="#A1A1A1" stroke-miterlimit="10" x1="961.5" y1="345" x2="961.5" y2="372"/>
	
		<line clip-path="url(#SVGID_2_)" fill="none" stroke="#A1A1A1" stroke-miterlimit="10" x1="982.796" y1="348.814" x2="992.215" y2="375.863"/>
	
		<line clip-path="url(#SVGID_2_)" fill="none" stroke="#A1A1A1" stroke-miterlimit="10" x1="1005.52" y1="351.518" x2="1023.402" y2="378.118"/>
	
		<line clip-path="url(#SVGID_2_)" fill="none" stroke="#A1A1A1" stroke-miterlimit="10" x1="1039.415" y1="352.309" x2="1054.591" y2="378.747"/>
	<g clip-path="url(#SVGID_2_)">
		<polygon fill="#A1A1A1" points="1068.392,349.346 1085.004,376.19 1067.55,349.885 		"/>
	</g>
	
		<line clip-path="url(#SVGID_2_)" fill="none" stroke="#A1A1A1" stroke-miterlimit="10" x1="892.107" y1="318.027" x2="899.082" y2="327.793"/>
	
		<line clip-path="url(#SVGID_2_)" fill="none" stroke="#A1A1A1" stroke-miterlimit="10" x1="874.655" y1="325.034" x2="882.537" y2="333.93"/>
	
		<line clip-path="url(#SVGID_2_)" fill="none" stroke="#A1A1A1" stroke-miterlimit="10" x1="859.214" y1="329.482" x2="867.48" y2="338.841"/>
	
		<line clip-path="url(#SVGID_2_)" fill="none" stroke="#A1A1A1" stroke-miterlimit="10" x1="839.813" y1="331.07" x2="850.137" y2="342.683"/>
	
		<line clip-path="url(#SVGID_2_)" fill="none" stroke="#A1A1A1" stroke-miterlimit="10" x1="819.897" y1="331.07" x2="828.852" y2="345.052"/>
	
		<line clip-path="url(#SVGID_2_)" fill="none" stroke="#A1A1A1" stroke-miterlimit="10" x1="796.14" y1="327.094" x2="807.412" y2="343.772"/>
	
		<line clip-path="url(#SVGID_2_)" fill="none" stroke="#A1A1A1" stroke-miterlimit="10" x1="772.784" y1="320.651" x2="780.274" y2="338.061"/>
	
		<line clip-path="url(#SVGID_2_)" fill="none" stroke="#A1A1A1" stroke-miterlimit="10" x1="751.49" y1="310.504" x2="758.14" y2="329.482"/>
	
		<line clip-path="url(#SVGID_2_)" fill="none" stroke="#A1A1A1" stroke-miterlimit="10" x1="729.36" y1="294.604" x2="741.679" y2="320.651"/>
	
		<line clip-path="url(#SVGID_2_)" fill="none" stroke="#A1A1A1" stroke-miterlimit="10" x1="710.351" y1="277.446" x2="717.43" y2="303.372"/>
	
		<line clip-path="url(#SVGID_2_)" fill="none" stroke="#A1A1A1" stroke-miterlimit="10" x1="695.937" y1="262.38" x2="698.277" y2="285.28"/>
	
		<line clip-path="url(#SVGID_2_)" fill="none" stroke="#A1A1A1" stroke-miterlimit="10" x1="684.072" y1="269.048" x2="679.735" y2="245.39"/>
	
		<line clip-path="url(#SVGID_2_)" fill="none" stroke="#A1A1A1" stroke-miterlimit="10" x1="656.522" y1="228.223" x2="660.898" y2="246.846"/>
	
		<line clip-path="url(#SVGID_2_)" fill="none" stroke="#A1A1A1" stroke-miterlimit="10" x1="639.957" y1="218.606" x2="647.15" y2="237.534"/>
	<path clip-path="url(#SVGID_2_)" fill="#A1A1A1" d="M524.603,168.163c-13.396-4.236-46.534,20.473-46.534,20.473
		c2.115,14.825,23.197,25.088,23.197,25.088l35.198-11.004C537.043,187.152,524.603,168.163,524.603,168.163z M507.276,197.918
		c-18.999-0.444-14.877-8.868-14.877-8.868c3.542-7.759,11.735,0,11.735,0c-1.328-12.857,8.635-8.867,8.635-8.867
		C521.293,187.705,507.276,197.918,507.276,197.918z"/>
	<path clip-path="url(#SVGID_2_)" fill="#A1A1A1" d="M596.519,159.691c-17.626-7.765-53.584,7.983-53.584,7.983
		c-1.41,10.101,8.437,33.279,8.437,33.279c28.179-1.097,41.003,5.062,41.003,5.062C600.215,185.977,596.519,159.691,596.519,159.691
		z M555.046,195c-3.709-4-7.506-25.69-7.506-25.69l5.719-0.997L558.979,195H555.046z M564.999,194.149l-6.02-28.508l7.692-2.271
		l4.832,31.794L564.999,194.149z M585.383,199h-8.369l-3.471-36.977c0,0,10.781-1.241,13.383,0.179L585.383,199z"/>
	<path clip-path="url(#SVGID_2_)" fill="#A1A1A1" d="M612.031,167.674l-6.41,43.272c10.046,3.87,36.065,20.39,36.065,20.39
		c10.619-7.423,26.044-34.229,26.044-34.229C657.859,173.811,612.031,167.674,612.031,167.674z M654.347,199.555
		c-3.839,6.524-10.623,0.417-10.623,0.417c-4.063-7.798,0.11-8.891,0.11-8.891c4.72-1.965,4.366,4.85,4.366,4.85
		C655.362,193.286,654.347,199.555,654.347,199.555z"/>
	<g clip-path="url(#SVGID_2_)">
		<g>
			
				<line fill="none" stroke="#A1A1A1" stroke-width="2" stroke-miterlimit="10" x1="530.49" y1="185.251" x2="531.468" y2="185.04"/>
			
				<line fill="none" stroke="#A1A1A1" stroke-width="2" stroke-miterlimit="10" stroke-dasharray="2.0631,2.0631" x1="533.484" y1="184.604" x2="544.575" y2="182.206"/>
			
				<line fill="none" stroke="#A1A1A1" stroke-width="2" stroke-miterlimit="10" x1="545.583" y1="181.988" x2="546.561" y2="181.776"/>
		</g>
	</g>
	
		<line clip-path="url(#SVGID_2_)" fill="none" stroke="#A1A1A1" stroke-width="2" stroke-miterlimit="10" stroke-dasharray="2,2" x1="595.043" y1="183.514" x2="612.078" y2="187.979"/>
	
		<line clip-path="url(#SVGID_2_)" fill="none" stroke="#A1A1A1" stroke-width="2" stroke-miterlimit="10" stroke-dasharray="2,2" x1="654.692" y1="213.724" x2="670.763" y2="225.817"/>
</g>
<path fill="#A2BDED" d="M506.724,195.918c-13.357-0.313-10.459-6.235-10.459-6.235c2.491-5.455,8.25,0,8.25,0
	c-0.934-9.04,6.071-6.234,6.071-6.234C516.578,188.738,506.724,195.918,506.724,195.918z"/>
</svg>
