<?xml version="1.0" encoding="utf-8"?>
<!-- Generator: Adobe Illustrator 15.1.0, SVG Export Plug-In . SVG Version: 6.00 Build 0)  -->
<!DOCTYPE svg PUBLIC "-//W3C//DTD SVG 1.1//EN" "http://www.w3.org/Graphics/SVG/1.1/DTD/svg11.dtd">
<svg version="1.1" id="Layer_1" xmlns="http://www.w3.org/2000/svg" xmlns:xlink="http://www.w3.org/1999/xlink" x="0px" y="0px"
	 width="242.747px" height="42px" viewBox="0 0 242.747 42" enable-background="new 0 0 242.747 42" xml:space="preserve">
<g>
	<path fill="#9D9FA4" d="M11.356,21.094c-1.36,0.071-2.549,0.108-3.568,0.108c-0.17,0-0.321-0.066-0.454-0.201
		c-0.135-0.133-0.2-0.283-0.2-0.455c0-0.169,0.065-0.32,0.2-0.454c0.133-0.134,0.284-0.2,0.454-0.2c0.995,0,2.148-0.023,3.46-0.072
		c-0.073-1.116-0.109-2.197-0.109-3.241c0-0.169,0.065-0.321,0.2-0.455c0.133-0.133,0.285-0.2,0.455-0.2
		c0.169,0,0.32,0.067,0.455,0.2c0.133,0.134,0.199,0.286,0.199,0.455c0,1.021,0.037,2.076,0.109,3.168
		c0.242-0.022,0.734-0.055,1.475-0.091s1.316-0.066,1.729-0.091c0.194,0,0.357,0.061,0.492,0.182
		c0.133,0.122,0.199,0.273,0.199,0.455c0,0.184-0.061,0.341-0.182,0.475c-0.122,0.134-0.268,0.199-0.437,0.199
		c-0.39,0.024-0.953,0.056-1.693,0.092c-0.741,0.035-1.232,0.066-1.475,0.091c0.12,1.068,0.277,2.246,0.473,3.531
		c0.023,0.194-0.019,0.364-0.127,0.511c-0.109,0.146-0.255,0.23-0.438,0.255c-0.182,0.023-0.346-0.02-0.491-0.127
		c-0.146-0.109-0.231-0.249-0.256-0.419C11.635,23.447,11.478,22.209,11.356,21.094z"/>
	<path fill="#9D9FA4" d="M37.243,19.055c0.22,0.023,1.08,0.035,2.585,0.035c0.485,0,1.008-0.012,1.565-0.035h0.292h0.218h0.109
		h0.037h0.036h0.037h0.035h0.037c0.121,0.023,0.23,0.071,0.328,0.146c0.121,0.122,0.206,0.279,0.255,0.475
		c0.048,0.097,0.085,0.229,0.109,0.399c0.023,0.218,0.036,0.522,0.036,0.91c0,0.315-0.024,1.165-0.073,2.549
		c-0.024,1.189-0.024,2.111,0,2.768c0.048,0.874,0.146,1.48,0.292,1.82c0.412,0.995,0.965,1.505,1.657,1.529
		c0.691,0.023,1.292-0.438,1.802-1.384c0.097-0.17,0.23-0.279,0.4-0.328c0.169-0.048,0.333-0.03,0.491,0.055
		c0.158,0.086,0.262,0.213,0.311,0.383c0.048,0.17,0.036,0.327-0.037,0.474c-0.752,1.433-1.76,2.136-3.022,2.111
		c-0.583-0.023-1.123-0.242-1.62-0.654c-0.498-0.413-0.904-0.972-1.221-1.676c-0.193-0.484-0.314-1.25-0.363-2.294
		c-0.024-0.68-0.024-1.626,0-2.84c0.048-1.358,0.072-2.186,0.072-2.477c0-0.268-0.013-0.485-0.037-0.655h-0.181
		c-0.243,0-0.486,0.013-0.728,0.036c0.048,0.098,0.072,0.195,0.072,0.292c-0.17,3.325-1.129,6.032-2.876,8.119
		c-0.654,0.753-1.299,1.335-1.93,1.748c-0.655,0.412-1.433,0.558-2.331,0.437c-2.136-0.268-3.677-1.93-4.624-4.987
		c-0.632-2.039-0.935-4.31-0.91-6.81c0.023-2.136,0.315-4.254,0.874-6.354c0.559-2.101,1.396-3.928,2.514-5.48
		c0.945-1.311,1.904-2.051,2.876-2.221c0.946-0.17,1.796,0.146,2.549,0.946c0.605,0.655,1.073,1.523,1.401,2.604
		c0.328,1.081,0.479,2.13,0.455,3.15c0,0.17-0.066,0.315-0.2,0.437s-0.292,0.182-0.474,0.182s-0.334-0.065-0.455-0.199
		c-0.122-0.134-0.182-0.297-0.182-0.492c0.023-0.874-0.104-1.767-0.382-2.676c-0.279-0.91-0.649-1.607-1.11-2.094
		c-0.437-0.461-0.898-0.655-1.384-0.583c-0.631,0.122-1.299,0.681-2.002,1.676c-1.044,1.48-1.833,3.191-2.367,5.134
		c-0.51,1.966-0.777,3.957-0.801,5.972c-0.024,2.379,0.255,4.516,0.837,6.408c0.776,2.525,1.954,3.884,3.532,4.078
		c0.605,0.073,1.134-0.03,1.583-0.311c0.448-0.277,0.952-0.758,1.511-1.438c1.553-1.844,2.415-4.284,2.585-7.318
		c0-0.073,0.012-0.146,0.036-0.219c-1.335,0-2.125-0.012-2.367-0.036c-0.194-0.022-0.346-0.109-0.455-0.255
		c-0.109-0.146-0.152-0.31-0.127-0.491c0.024-0.183,0.109-0.328,0.255-0.438C36.917,19.072,37.073,19.029,37.243,19.055z"/>
	<path fill="#9D9FA4" d="M47.476,12.754c0.825,1.651,2.002,2.842,3.532,3.568c0.413,0.195,0.886,0.328,1.42,0.4h0.037
		c0.023,0,0.06-0.005,0.108-0.019c0.048-0.012,0.084-0.019,0.109-0.019c0.194-0.048,0.352-0.048,0.474,0
		c0.315,0.073,0.521,0.268,0.619,0.583c0.073,0.34,0.023,0.74-0.146,1.201c-0.146,0.462-0.219,0.717-0.219,0.765
		c-0.389,2.354-0.533,4.236-0.437,5.644c0.146,2.138,0.801,3.702,1.966,4.697c0.559,0.486,1.165,0.583,1.82,0.291
		c0.388-0.169,1.08-0.703,2.076-1.602c0.146-0.098,0.31-0.141,0.49-0.128c0.183,0.013,0.328,0.086,0.438,0.219
		c0.109,0.134,0.158,0.291,0.146,0.474s-0.078,0.334-0.2,0.455c-1.117,0.946-1.917,1.541-2.403,1.784
		c-1.165,0.533-2.246,0.376-3.241-0.474c-1.433-1.238-2.232-3.106-2.403-5.607c-0.097-1.505,0.049-3.495,0.438-5.972
		c0.024-0.121,0.121-0.438,0.292-0.946v-0.036h-0.146c-0.68-0.097-1.286-0.279-1.82-0.547c-0.972-0.46-1.81-1.067-2.513-1.82
		c0.219,2.525,0.304,5.099,0.256,7.721c-0.05,2.621-0.183,4.915-0.401,6.882c-0.024,0.17-0.109,0.314-0.255,0.437
		c-0.146,0.121-0.304,0.17-0.474,0.146c-0.17-0.024-0.315-0.109-0.437-0.255c-0.122-0.146-0.17-0.304-0.146-0.475
		c0.29-2.039,0.437-4.891,0.437-8.557c-0.024-3.762-0.268-6.505-0.729-8.229c-0.097-0.291-0.023-0.521,0.22-0.69
		c0.048-0.073,0.121-0.134,0.218-0.184c0.169-0.071,0.34-0.085,0.51-0.035S47.402,12.585,47.476,12.754z"/>
	<path fill="#9D9FA4" d="M67.355,17.451c0.169,0.049,0.291,0.158,0.364,0.328l0.073,0.182c0.023,0.05,0.036,0.099,0.036,0.146v0.474
		c0,0.511-0.013,0.91-0.036,1.201c-0.073,1.069-0.134,1.834-0.183,2.294l-0.073,0.583c0,0.777,0.024,1.48,0.073,2.112
		c0.268,2.67,1.068,4.248,2.403,4.732c0.388,0.146,0.825,0.072,1.311-0.219c0.485-0.267,0.887-0.631,1.202-1.093
		c0.098-0.146,0.236-0.236,0.418-0.272c0.183-0.036,0.347-0.006,0.492,0.092c0.146,0.098,0.237,0.235,0.273,0.419
		c0.036,0.182,0.006,0.346-0.092,0.49c-0.437,0.633-0.982,1.13-1.639,1.493c-0.85,0.511-1.651,0.619-2.403,0.327
		c-1.505-0.558-2.512-1.953-3.021-4.188c-0.146,0.462-0.304,0.897-0.473,1.312c-0.56,1.189-1.19,2.063-1.895,2.621
		c-0.947,0.729-1.979,0.874-3.095,0.438c-1.433-0.583-2.367-2.063-2.803-4.442c-0.364-2.015-0.315-4.248,0.146-6.7
		c0.461-2.476,1.213-4.369,2.257-5.68c0.606-0.752,1.274-1.238,2.003-1.456c0.825-0.219,1.65-0.073,2.477,0.437
		C66.385,13.812,67.112,15.268,67.355,17.451z M66.082,17.926c-0.171-1.968-0.692-3.217-1.566-3.75
		c-0.51-0.292-0.996-0.378-1.457-0.256c-0.461,0.121-0.91,0.449-1.347,0.982c-0.898,1.165-1.565,2.877-2.002,5.134
		c-0.438,2.258-0.475,4.321-0.109,6.19c0.34,1.918,1.007,3.07,2.002,3.459c0.631,0.268,1.226,0.193,1.784-0.219
		c0.534-0.438,1.032-1.152,1.493-2.148c0.605-1.334,1.056-2.925,1.347-4.771c0-1.066,0.073-2.438,0.218-4.113
		C66.227,18.338,66.105,18.168,66.082,17.926z"/>
	<path fill="#9D9FA4" d="M73,13.155c0.12,0.85,0.146,2.366,0.072,4.551c0.485-1.165,1.043-2.11,1.676-2.84
		c1.02-1.188,2.185-1.76,3.495-1.711c1.068,0.024,2.003,0.595,2.805,1.711c0.534,0.729,0.971,1.614,1.311,2.658
		c0.485,1.675,0.516,3.439,0.091,5.298c-0.425,1.856-1.171,3.453-2.238,4.788c-0.777,1.02-1.64,1.724-2.585,2.111
		c1.358,0.268,2.754,0.262,4.187-0.019c1.432-0.278,2.707-0.783,3.823-1.512c0.146-0.097,0.31-0.127,0.492-0.091
		c0.182,0.036,0.32,0.128,0.418,0.272c0.097,0.146,0.127,0.311,0.091,0.491c-0.037,0.183-0.127,0.322-0.273,0.419
		c-1.698,1.143-3.666,1.784-5.897,1.93c-2.257,0.121-4.321-0.353-6.19-1.42c0.559,1.82,0.851,3.446,0.874,4.879
		c0.024,0.897-0.085,1.748-0.328,2.55c-0.072,0.291-0.17,0.533-0.292,0.729c-0.17,0.291-0.389,0.485-0.654,0.582
		c-0.341,0.121-0.668,0.062-0.983-0.182c-0.243-0.146-0.486-0.4-0.729-0.766c-0.242-0.389-0.437-0.996-0.582-1.819
		c-0.098-0.705-0.158-1.615-0.183-2.731c-0.073-1.578-0.061-3.762,0.037-6.554c0-0.583,0.024-1.214,0.073-1.895
		c0.023-0.437,0.055-1.104,0.091-2.003c0.037-0.896,0.066-1.577,0.091-2.039c0.024-0.46,0.048-1.056,0.073-1.783
		c0.023-0.729,0.036-1.312,0.036-1.747v-1.457c0-0.511-0.006-0.946-0.019-1.312c-0.013-0.364-0.042-0.68-0.091-0.945
		c-0.024-0.171,0.019-0.328,0.127-0.475c0.109-0.146,0.255-0.229,0.438-0.255c0.182-0.024,0.346,0.019,0.491,0.127
		C72.89,12.81,72.975,12.961,73,13.155z M73.473,37.149c0.048-0.072,0.084-0.17,0.109-0.291c0.193-0.655,0.278-1.384,0.255-2.186
		c-0.024-1.528-0.413-3.361-1.165-5.497c-0.024,1.506-0.019,2.778,0.018,3.822c0.037,1.043,0.104,1.895,0.2,2.549
		c0.097,0.655,0.219,1.093,0.364,1.312C73.326,36.979,73.399,37.077,73.473,37.149z M73.218,26.882
		c0.97,1.264,1.99,1.869,3.058,1.82c0.995-0.072,1.96-0.703,2.896-1.894c0.934-1.188,1.596-2.621,1.983-4.296
		c0.389-1.676,0.376-3.191-0.037-4.553c-0.314-0.945-0.691-1.723-1.128-2.33c-0.533-0.752-1.116-1.141-1.748-1.165
		c-0.923-0.023-1.76,0.4-2.512,1.274c-0.705,0.825-1.311,1.99-1.821,3.495c-0.559,1.675-0.923,3.483-1.092,5.426l-0.036,1.128
		L73.218,26.882z"/>
	<path fill="#9D9FA4" d="M88.327,21.02l-0.108,0.399c-0.68,3.787-1.068,6.458-1.165,8.012v0.036c0,0.072-0.013,0.134-0.037,0.183
		v0.4c0,0.17-0.067,0.314-0.2,0.437c-0.134,0.122-0.291,0.183-0.473,0.183c-0.183,0-0.34-0.065-0.475-0.199
		c-0.134-0.135-0.199-0.292-0.199-0.475c0-0.182,0.012-0.37,0.037-0.563c-0.073-0.972-0.2-2.415-0.383-4.333
		c-0.182-1.917-0.31-3.38-0.382-4.389c-0.073-1.007-0.151-2.476-0.236-4.404c-0.085-1.931-0.066-3.404,0.055-4.425
		c0.097-1.723,0.242-3.046,0.437-3.969c0.194-1.02,0.461-1.76,0.802-2.221c0.267-0.388,0.583-0.619,0.946-0.692
		c0.389-0.097,0.789,0.014,1.202,0.328c0.413,0.292,0.716,0.826,0.91,1.604c0.146,0.559,0.243,1.25,0.292,2.074
		c0.073,0.754,0.084,1.942,0.036,3.568c-0.024,1.189-0.122,2.428-0.291,3.714c0.51-0.825,1.092-1.493,1.748-2.003
		s1.469-0.824,2.438-0.946c1.433-0.17,2.5,0.534,3.205,2.111c0.438,1.069,0.715,2.646,0.837,4.734
		c0.049,0.704,0.084,1.711,0.109,3.021c0.023,1.313,0.036,2.039,0.036,2.186c0.048,1.771,0.182,2.913,0.399,3.423
		c0.511,1.02,1.312,1.457,2.403,1.311c0.534-0.071,1.043-0.267,1.529-0.582c0.484-0.314,0.897-0.716,1.238-1.202
		c0.097-0.169,0.229-0.271,0.4-0.309c0.169-0.037,0.333-0.006,0.491,0.091c0.158,0.098,0.255,0.23,0.292,0.4
		c0.036,0.17,0.006,0.327-0.091,0.474c-0.389,0.655-0.917,1.201-1.583,1.639c-0.668,0.438-1.366,0.703-2.095,0.802
		c-0.776,0.097-1.505-0.024-2.185-0.364c-0.68-0.341-1.202-0.923-1.566-1.748c-0.315-0.655-0.497-1.953-0.546-3.896
		c0-0.146-0.013-0.868-0.037-2.167c-0.023-1.299-0.061-2.301-0.108-3.005c-0.097-1.94-0.353-3.374-0.765-4.297
		c-0.413-0.97-1.021-1.406-1.82-1.311c-0.753,0.073-1.372,0.315-1.857,0.729s-0.982,1.009-1.493,1.784l-0.583,1.165
		c-0.193,0.389-0.412,0.874-0.654,1.456L88.327,21.02z M87.309,6.273c-0.049,0.049-0.085,0.097-0.109,0.146
		c-0.267,0.315-0.498,0.898-0.691,1.748c-0.194,0.826-0.353,2.088-0.474,3.787c-0.194,2.84-0.036,6.663,0.474,11.471l0.474-2.222
		c0.825-3.933,1.262-6.81,1.312-8.63c0.023-1.529,0.012-2.682-0.036-3.459c-0.073-0.752-0.177-1.371-0.311-1.857
		c-0.134-0.484-0.286-0.788-0.455-0.91L87.309,6.273z"/>
	<path fill="#9D9FA4" d="M104.75,13.701c-0.024,0.315-0.092,1.032-0.2,2.148c-0.109,1.115-0.195,2.124-0.255,3.021
		c-0.062,0.898-0.116,2.039-0.164,3.423c-0.049,1.385-0.014,2.501,0.108,3.351c0.194,2.21,0.68,3.581,1.456,4.115
		c0.874,0.581,2.271,0.049,4.188-1.604c0.169-0.121,0.346-0.17,0.527-0.146c0.183,0.023,0.333,0.104,0.455,0.235
		c0.122,0.134,0.17,0.292,0.146,0.475c-0.024,0.182-0.097,0.334-0.219,0.455c-2.477,2.063-4.431,2.608-5.862,1.639
		c-1.117-0.752-1.797-2.439-2.039-5.063c-0.122-0.874-0.158-2.021-0.109-3.439c0.049-1.42,0.104-2.599,0.164-3.532
		c0.062-0.934,0.146-1.96,0.255-3.077c0.109-1.116,0.177-1.808,0.201-2.075c0-0.192,0.078-0.346,0.236-0.455
		c0.158-0.108,0.328-0.163,0.51-0.163c0.183,0,0.328,0.072,0.438,0.219C104.695,13.373,104.75,13.531,104.75,13.701z M104.694,8.33
		c0.133,0.134,0.2,0.286,0.2,0.456s-0.067,0.322-0.2,0.455c-0.134,0.134-0.286,0.2-0.455,0.2c-0.17,0-0.321-0.066-0.455-0.2
		c-0.134-0.133-0.2-0.285-0.2-0.455s0.066-0.322,0.2-0.456c0.134-0.133,0.285-0.2,0.455-0.2
		C104.408,8.13,104.561,8.197,104.694,8.33z"/>
	<path fill="#9D9FA4" d="M116.183,15.776c-0.413-1.092-0.887-1.724-1.42-1.895c-0.388-0.146-0.868-0.012-1.438,0.4
		c-0.57,0.413-1.11,1.032-1.621,1.857c-0.509,0.824-0.886,1.613-1.128,2.365c-0.559,1.847-0.771,3.51-0.637,4.989
		c0.133,1.48,0.485,2.712,1.056,3.695c0.571,0.982,1.28,1.718,2.131,2.203c0.631,0.34,1.285,0.516,1.966,0.526
		c0.679,0.014,1.389-0.146,2.13-0.473c0.74-0.328,1.479-0.91,2.221-1.748c0.74-0.838,1.414-1.887,2.021-3.148
		c0.072-0.171,0.193-0.285,0.363-0.347c0.169-0.061,0.333-0.055,0.492,0.019c0.158,0.072,0.268,0.193,0.328,0.363
		s0.055,0.328-0.018,0.475c-0.607,1.384-1.329,2.555-2.167,3.514s-1.706,1.646-2.604,2.057c-0.897,0.413-1.814,0.613-2.749,0.603
		c-0.935-0.013-1.814-0.25-2.64-0.71c-1.675-0.923-2.828-2.478-3.459-4.661s-0.521-4.757,0.328-7.719
		c0.267-0.874,0.686-1.778,1.256-2.713c0.569-0.936,1.208-1.669,1.912-2.203c0.922-0.704,1.82-0.897,2.693-0.582
		c0.922,0.314,1.676,1.214,2.259,2.693c0.048,0.146,0.035,0.305-0.037,0.474c-0.073,0.171-0.188,0.286-0.347,0.347
		c-0.157,0.062-0.321,0.054-0.491-0.019C116.412,16.067,116.278,15.946,116.183,15.776z"/>
	<path fill="#9D9FA4" d="M134.933,5.545c2.136,0,4.46,0.874,6.973,2.622c2.514,1.748,4.68,3.885,6.5,6.409
		c1.917,2.694,3.034,5.269,3.351,7.719c0.363,2.864-0.461,5.146-2.477,6.847c-0.315,0.242-0.631,0.473-0.946,0.69
		c0.752,0.17,1.443,0.269,2.075,0.291c1.626,0.024,2.828-0.582,3.604-1.819c0.097-0.146,0.229-0.236,0.399-0.272
		c0.171-0.037,0.333-0.006,0.492,0.091c0.158,0.098,0.255,0.23,0.292,0.4c0.036,0.17,0.005,0.34-0.091,0.51
		c-1.044,1.651-2.622,2.451-4.732,2.403c-1.068-0.024-2.355-0.279-3.859-0.766c-2.307,0.802-4.819,0.824-7.537,0.072
		c-0.923-0.242-1.615-0.473-2.076-0.69c-0.122-0.05-0.23-0.109-0.328-0.184c0,0.146-0.013,0.292-0.037,0.438
		c-0.023,0.193-0.108,0.346-0.255,0.455c-0.146,0.108-0.31,0.15-0.49,0.127c-0.183-0.024-0.328-0.108-0.438-0.255
		s-0.152-0.304-0.127-0.474c0.146-1.141,0.224-2.313,0.236-3.514c0.012-1.202-0.024-2.677-0.109-4.424
		c-0.085-1.748-0.127-2.95-0.127-3.605c-0.073-4.709-0.182-8.629-0.328-11.761c-0.17,0-0.315-0.066-0.437-0.2
		c-0.122-0.133-0.183-0.285-0.183-0.455c0-0.169,0.066-0.321,0.2-0.455C134.611,5.612,134.763,5.545,134.933,5.545z M146.476,29.285
		c0.728-0.291,1.371-0.68,1.93-1.165c1.676-1.384,2.354-3.276,2.039-5.681c-0.267-2.208-1.299-4.575-3.095-7.101
		c-1.529-2.111-3.32-3.944-5.371-5.499c-2.052-1.553-3.975-2.5-5.771-2.84c0.146,3.107,0.255,6.979,0.327,11.615
		c0,0.486,0.042,1.712,0.127,3.678c0.086,1.968,0.115,3.483,0.092,4.553c0.752-0.341,1.808-0.328,3.167,0.035
		c0.461,0.122,0.971,0.279,1.528,0.475l2.076,0.801c0.85,0.315,1.396,0.534,1.64,0.655L146.476,29.285z M144.255,29.867
		c-2.525-0.994-4.078-1.564-4.661-1.711c-1.434-0.364-2.354-0.278-2.768,0.255v0.036c0.098,0.122,0.315,0.255,0.655,0.4
		c0.388,0.194,1.007,0.413,1.857,0.655C141.014,29.94,142.652,30.063,144.255,29.867z"/>
	<path fill="#9D9FA4" d="M156.562,28.375c0.777,0.777,1.796,1.25,3.059,1.42c0.947,0.122,1.895,0.036,2.841-0.255
		s1.76-0.752,2.439-1.384c0.121-0.121,0.273-0.182,0.455-0.182s0.333,0.065,0.455,0.2c0.121,0.134,0.182,0.29,0.182,0.473
		s-0.072,0.334-0.219,0.455c-0.801,0.776-1.771,1.336-2.913,1.676c-1.142,0.339-2.282,0.437-3.423,0.291
		c-1.188-0.146-2.257-0.559-3.204-1.238c-0.947-0.703-1.626-1.649-2.039-2.84c-0.559-1.724-0.759-3.61-0.601-5.662
		c0.157-2.051,0.625-3.878,1.401-5.479c0.438-0.898,0.946-1.626,1.529-2.186c0.631-0.583,1.25-0.874,1.857-0.874
		c0.752,0,1.311,0.4,1.675,1.201c0.291,0.704,0.4,1.675,0.328,2.913C160.167,20.207,158.892,24.03,156.562,28.375z M155.688,27.173
		c2.063-3.883,3.192-7.329,3.386-10.341c0.073-1.043,0-1.808-0.218-2.294c-0.146-0.291-0.304-0.437-0.473-0.437
		c-0.269,0-0.596,0.17-0.983,0.51c-0.461,0.437-0.874,1.044-1.238,1.82c-0.704,1.457-1.129,3.126-1.273,5.007
		c-0.146,1.882,0.036,3.587,0.546,5.115C155.506,26.772,155.591,26.979,155.688,27.173z"/>
	<path fill="#9D9FA4" d="M163.771,28.484c0.243-0.292,0.546-0.898,0.91-1.821c0.314-0.824,0.667-1.881,1.056-3.167l0.619-2.186
		c0.218-0.776,0.424-1.547,0.619-2.313c0.195-0.765,0.328-1.269,0.401-1.512c0.121-0.484,0.339-1.188,0.654-2.111
		c0.169-0.51,0.315-0.935,0.438-1.273c0.073-0.194,0.133-0.34,0.182-0.438c0.024-0.098,0.054-0.17,0.091-0.219
		s0.079-0.085,0.127-0.109c0.098-0.121,0.219-0.193,0.364-0.219c0.412-0.072,0.766,0.122,1.056,0.583
		c0.146,0.194,0.304,0.51,0.475,0.946c0.097,0.193,0.236,0.553,0.418,1.074s0.333,0.903,0.455,1.146
		c0.073,0.218,0.51,1.153,1.311,2.804c0.704,1.384,1.213,2.562,1.529,3.531c1.068,2.938,1.02,5.159-0.146,6.663
		c2.112,0.561,3.848,0.086,5.207-1.42c0.098-0.121,0.237-0.188,0.42-0.2c0.182-0.012,0.339,0.037,0.473,0.146
		c0.133,0.108,0.206,0.255,0.219,0.438c0.012,0.183-0.043,0.347-0.164,0.491c-1.845,2.112-4.26,2.634-7.246,1.565
		c-0.559,0.363-1.177,0.583-1.856,0.655c-0.681,0.072-1.317,0.036-1.912-0.108c-0.595-0.146-1.171-0.377-1.729-0.692
		c-0.971-0.558-1.711-1.237-2.221-2.039c-0.049-0.097-0.098-0.206-0.146-0.327c-0.219,0.438-0.438,0.766-0.655,0.982
		c-0.122,0.146-0.269,0.219-0.438,0.219c-0.17,0-0.328-0.061-0.473-0.182c-0.146-0.121-0.219-0.268-0.219-0.438
		C163.589,28.788,163.649,28.63,163.771,28.484z M166.429,26.955c-0.122,0.268-0.049,0.618,0.218,1.057
		c0.364,0.606,0.947,1.129,1.748,1.564c1.141,0.655,2.208,0.862,3.204,0.619c-0.559-0.291-1.142-0.631-1.748-1.02
		c-0.073-0.049-0.364-0.268-0.874-0.655c-0.51-0.389-0.935-0.692-1.274-0.91c-0.485-0.315-0.874-0.521-1.165-0.619
		C166.488,26.968,166.452,26.955,166.429,26.955z M169.523,15.013l-0.255,0.765c-0.291,0.898-0.51,1.59-0.655,2.075
		c-0.049,0.243-0.17,0.741-0.363,1.493l-0.655,2.33l-0.619,2.222l-0.546,1.747c0.169,0,0.352,0.037,0.546,0.108
		c0.388,0.122,0.874,0.377,1.457,0.766c0.364,0.243,0.813,0.559,1.347,0.946c0.485,0.39,0.752,0.596,0.801,0.618
		c0.874,0.561,1.688,0.996,2.439,1.313l0.109-0.109c1.02-1.116,1.067-2.998,0.146-5.644c-0.34-0.923-0.837-2.063-1.493-3.423
		l-1.384-2.841c-0.097-0.242-0.243-0.631-0.437-1.166l-0.4-1.092L169.523,15.013z"/>
	<path fill="#9D9FA4" d="M181.283,13.701c-0.023,0.315-0.091,1.032-0.199,2.148c-0.109,1.115-0.195,2.124-0.256,3.021
		c-0.061,0.898-0.115,2.039-0.163,3.423c-0.05,1.385-0.014,2.501,0.108,3.351c0.194,2.21,0.679,3.581,1.456,4.115
		c0.874,0.581,2.271,0.049,4.188-1.604c0.169-0.121,0.346-0.17,0.527-0.146c0.183,0.023,0.333,0.104,0.455,0.235
		c0.122,0.134,0.17,0.292,0.146,0.475c-0.024,0.182-0.098,0.334-0.22,0.455c-2.476,2.063-4.43,2.608-5.861,1.639
		c-1.117-0.752-1.797-2.439-2.039-5.063c-0.122-0.874-0.158-2.021-0.109-3.439c0.048-1.42,0.104-2.599,0.164-3.532
		c0.062-0.934,0.146-1.96,0.255-3.077c0.109-1.116,0.176-1.808,0.201-2.075c0-0.192,0.078-0.346,0.236-0.455
		c0.158-0.108,0.328-0.163,0.51-0.163s0.328,0.072,0.437,0.219C181.229,13.373,181.283,13.531,181.283,13.701z M181.229,8.33
		c0.133,0.134,0.2,0.286,0.2,0.456s-0.067,0.322-0.2,0.455c-0.134,0.134-0.286,0.2-0.455,0.2c-0.17,0-0.322-0.066-0.455-0.2
		c-0.134-0.133-0.201-0.285-0.201-0.455s0.067-0.322,0.201-0.456c0.133-0.133,0.285-0.2,0.455-0.2
		C180.943,8.13,181.096,8.197,181.229,8.33z"/>
	<path fill="#9D9FA4" d="M194.281,25.753c-0.389,0.996-0.824,1.857-1.311,2.585c-0.729,1.117-1.519,1.87-2.367,2.259
		c-1.069,0.484-2.147,0.352-3.241-0.4c-1.528-1.043-2.281-2.913-2.258-5.607c0.025-2.306,0.57-4.6,1.639-6.882
		c1.116-2.402,2.392-3.871,3.823-4.404c0.898-0.341,1.748-0.269,2.549,0.218c0.776,0.485,1.469,1.359,2.075,2.622
		c0.146,0.314,0.097,0.582-0.146,0.801c0.146,0.049,0.267,0.134,0.363,0.255c0.024,0.049,0.049,0.109,0.073,0.183
		c0.024,0.024,0.037,0.05,0.037,0.072v0.184c0,0.218,0.012,1.062,0.036,2.529c0.023,1.47,0.042,2.755,0.055,3.859
		c0.012,1.104-0.018,2.567-0.091,4.388c0,0.364-0.013,0.717-0.037,1.057c0.752-0.34,1.99-0.802,3.714-1.385
		c0.169-0.048,0.34-0.035,0.51,0.037s0.279,0.194,0.328,0.364s0.037,0.34-0.035,0.51c-0.073,0.17-0.195,0.279-0.364,0.327
		c-1.991,0.68-3.411,1.214-4.26,1.604c-0.122,1.432-0.291,2.633-0.511,3.604c-0.218,0.897-0.473,1.614-0.765,2.148
		c-0.388,0.702-0.874,1.129-1.456,1.273c-0.705,0.146-1.311,0.062-1.821-0.255c-0.437-0.292-0.74-0.741-0.91-1.348
		c-0.268-1.021-0.157-2.016,0.328-2.985c0.606-1.188,1.905-2.282,3.896-3.277l0.073-1.711
		C194.258,27.551,194.281,26.677,194.281,25.753z M194.027,16.724c-0.485-1.043-1.02-1.734-1.602-2.075
		c-0.438-0.268-0.898-0.303-1.384-0.109c-1.117,0.413-2.161,1.651-3.132,3.714c-0.971,2.112-1.469,4.226-1.492,6.336
		c-0.024,2.233,0.533,3.738,1.675,4.516c0.704,0.485,1.371,0.583,2.003,0.292c0.605-0.268,1.201-0.851,1.784-1.748
		c0.51-0.801,0.952-1.711,1.329-2.73c0.377-1.019,0.625-1.894,0.746-2.622c0.073-0.314,0.121-0.674,0.146-1.073
		c0.024-0.4,0.037-0.861,0.037-1.385c0-0.521,0.012-0.928,0.036-1.22c0-0.097,0.012-0.339,0.037-0.728v-0.328v-0.036v-0.037
		c0-0.022,0.012-0.048,0.037-0.072c0-0.049,0.012-0.085,0.035-0.108c0.024-0.098,0.073-0.183,0.146-0.255
		C194.233,17.003,194.1,16.895,194.027,16.724z M193.99,31.615c-1.311,0.752-2.173,1.529-2.585,2.33
		c-0.34,0.68-0.413,1.371-0.218,2.076c0.073,0.267,0.194,0.461,0.364,0.582c0.193,0.121,0.461,0.134,0.801,0.036
		c0.194-0.024,0.388-0.219,0.583-0.582c0.242-0.438,0.449-1.044,0.619-1.82C193.724,33.51,193.868,32.636,193.99,31.615z"/>
	<path fill="#9D9FA4" d="M198.905,23.351c0-0.897-0.012-2.451-0.036-4.66c-0.023-2.209-0.036-3.92-0.036-5.134
		c0-0.17,0.065-0.321,0.199-0.455s0.285-0.2,0.455-0.2s0.322,0.066,0.456,0.2c0.133,0.134,0.2,0.285,0.2,0.455
		c0,1.214,0.012,2.948,0.036,5.206c0.219-0.582,0.449-1.116,0.691-1.603c0.632-1.311,1.323-2.294,2.076-2.949
		c0.971-0.874,1.979-1.178,3.022-0.909c1.457,0.34,2.391,1.541,2.804,3.604c0.242,1.092,0.353,3.022,0.328,5.789
		c-0.024,2.694,0.037,4.479,0.182,5.353c0.219,1.335,0.655,2.027,1.312,2.075c1.553,0.146,2.876-0.437,3.969-1.747
		c0.121-0.146,0.273-0.229,0.455-0.255c0.182-0.024,0.339,0.024,0.473,0.146s0.212,0.272,0.237,0.455
		c0.024,0.182-0.024,0.334-0.146,0.455c-1.385,1.698-3.096,2.45-5.135,2.258c-1.335-0.122-2.161-1.179-2.476-3.168
		c-0.146-0.947-0.207-2.815-0.182-5.607c0.048-2.549-0.05-4.369-0.291-5.462c-0.316-1.529-0.924-2.415-1.821-2.658
		c-0.607-0.146-1.227,0.073-1.857,0.655c-0.606,0.535-1.202,1.384-1.784,2.549c-0.461,0.947-0.854,1.967-1.183,3.06
		s-0.541,1.979-0.637,2.657v1.165c0,0.269,0.005,0.789,0.018,1.566c0.013,0.776,0.019,1.383,0.019,1.82
		c0,0.17-0.013,0.644-0.036,1.42v0.546v0.073v0.071v0.073c-0.024,0.024-0.037,0.049-0.037,0.073
		c-0.049,0.146-0.158,0.267-0.328,0.362c-0.194,0.098-0.389,0.098-0.583,0c-0.097-0.048-0.182-0.12-0.255-0.218
		c-0.024-0.073-0.049-0.134-0.073-0.183c-0.023-0.048-0.037-0.085-0.037-0.109v-0.218c0-0.121-0.018-0.68-0.055-1.675
		c-0.036-0.995-0.054-1.912-0.054-2.749C198.798,24.644,198.834,23.934,198.905,23.351z"/>
	<path fill="#9D9FA4" d="M230.438,21.094c-1.36,0.071-2.549,0.108-3.568,0.108c-0.17,0-0.321-0.066-0.454-0.201
		c-0.135-0.133-0.2-0.283-0.2-0.455c0-0.169,0.065-0.32,0.2-0.454c0.133-0.134,0.284-0.2,0.454-0.2c0.995,0,2.148-0.023,3.459-0.072
		c-0.072-1.116-0.108-2.197-0.108-3.241c0-0.169,0.065-0.321,0.2-0.455c0.133-0.133,0.284-0.2,0.455-0.2
		c0.169,0,0.32,0.067,0.454,0.2c0.134,0.134,0.2,0.286,0.2,0.455c0,1.021,0.037,2.076,0.109,3.168
		c0.242-0.022,0.734-0.055,1.475-0.091s1.316-0.066,1.729-0.091c0.193,0,0.357,0.061,0.492,0.182
		c0.133,0.122,0.199,0.273,0.199,0.455c0,0.184-0.061,0.341-0.182,0.475c-0.122,0.134-0.268,0.199-0.437,0.199
		c-0.39,0.024-0.953,0.056-1.693,0.092c-0.741,0.035-1.232,0.066-1.475,0.091c0.12,1.068,0.277,2.246,0.473,3.531
		c0.023,0.194-0.019,0.364-0.127,0.511c-0.109,0.146-0.255,0.23-0.438,0.255c-0.182,0.023-0.346-0.02-0.491-0.127
		c-0.146-0.109-0.231-0.249-0.256-0.419C230.717,23.447,230.559,22.209,230.438,21.094z"/>
</g>
</svg>
