<?xml version="1.0" encoding="utf-8"?>
<!-- Generator: Adobe Illustrator 15.1.0, SVG Export Plug-In . SVG Version: 6.00 Build 0)  -->
<!DOCTYPE svg PUBLIC "-//W3C//DTD SVG 1.0//EN" "http://www.w3.org/TR/2001/REC-SVG-20010904/DTD/svg10.dtd">
<svg version="1.0" id="Layer_1" xmlns="http://www.w3.org/2000/svg" xmlns:xlink="http://www.w3.org/1999/xlink" x="0px" y="0px"
	 width="80.138px" height="180px" viewBox="0 0 80.138 180" enable-background="new 0 0 80.138 180" xml:space="preserve">
<path fill="#FFFFFF" d="M16.671,17.064c0,3.387-2.746,6.133-6.133,6.133c-3.389,0-6.135-2.746-6.135-6.133
	c0-3.388,2.746-6.134,6.135-6.134C13.925,10.931,16.671,13.677,16.671,17.064"/>
<path fill="#FFFFFF" d="M31.671,17.064c0,3.387-2.746,6.133-6.133,6.133c-3.389,0-6.135-2.746-6.135-6.133
	c0-3.388,2.746-6.134,6.135-6.134C28.925,10.931,31.671,13.677,31.671,17.064"/>
<path fill="#FFFFFF" d="M46.671,17.064c0,3.387-2.746,6.133-6.133,6.133c-3.389,0-6.135-2.746-6.135-6.133
	c0-3.388,2.746-6.134,6.135-6.134C43.925,10.931,46.671,13.677,46.671,17.064"/>
<path fill="#FFFFFF" d="M61.671,17.064c0,3.387-2.746,6.133-6.133,6.133c-3.389,0-6.135-2.746-6.135-6.133
	c0-3.388,2.746-6.134,6.135-6.134C58.925,10.931,61.671,13.677,61.671,17.064"/>
<path fill="#FFFFFF" d="M76.671,17.064c0,3.387-2.746,6.133-6.133,6.133c-3.389,0-6.135-2.746-6.135-6.133
	c0-3.388,2.746-6.134,6.135-6.134C73.925,10.931,76.671,13.677,76.671,17.064"/>
<path fill="#FFFFFF" d="M16.671,39.064c0,3.387-2.746,6.133-6.133,6.133c-3.389,0-6.135-2.746-6.135-6.133
	c0-3.388,2.746-6.134,6.135-6.134C13.925,32.931,16.671,35.677,16.671,39.064"/>
<path fill="#FFFFFF" d="M31.671,39.064c0,3.387-2.746,6.133-6.133,6.133c-3.389,0-6.135-2.746-6.135-6.133
	c0-3.388,2.746-6.134,6.135-6.134C28.925,32.931,31.671,35.677,31.671,39.064"/>
<path fill="#FFFFFF" d="M46.671,39.064c0,3.387-2.746,6.133-6.133,6.133c-3.389,0-6.135-2.746-6.135-6.133
	c0-3.388,2.746-6.134,6.135-6.134C43.925,32.931,46.671,35.677,46.671,39.064"/>
<path fill="none" stroke="#FFFFFF" stroke-miterlimit="10" d="M61.671,39.064c0,3.387-2.746,6.133-6.133,6.133
	c-3.389,0-6.135-2.746-6.135-6.133c0-3.388,2.746-6.134,6.135-6.134C58.925,32.931,61.671,35.677,61.671,39.064"/>
<circle fill="none" stroke="#FFFFFF" stroke-miterlimit="10" cx="70.537" cy="39.064" r="6.134"/>
<path fill="#FFFFFF" d="M16.671,60.064c0,3.387-2.746,6.133-6.133,6.133c-3.389,0-6.135-2.746-6.135-6.133
	c0-3.388,2.746-6.134,6.135-6.134C13.925,53.931,16.671,56.677,16.671,60.064"/>
<path fill="#FFFFFF" d="M31.671,60.064c0,3.387-2.746,6.133-6.133,6.133c-3.389,0-6.135-2.746-6.135-6.133
	c0-3.388,2.746-6.134,6.135-6.134C28.925,53.931,31.671,56.677,31.671,60.064"/>
<path fill="#FFFFFF" d="M46.671,60.064c0,3.387-2.746,6.133-6.133,6.133c-3.389,0-6.135-2.746-6.135-6.133
	c0-3.388,2.746-6.134,6.135-6.134C43.925,53.931,46.671,56.677,46.671,60.064"/>
<path fill="#FFFFFF" d="M61.671,60.064c0,3.387-2.746,6.133-6.133,6.133c-3.389,0-6.135-2.746-6.135-6.133
	c0-3.388,2.746-6.134,6.135-6.134C58.925,53.931,61.671,56.677,61.671,60.064"/>
<circle fill="none" stroke="#FFFFFF" stroke-miterlimit="10" cx="70.537" cy="60.064" r="6.134"/>
<path fill="#FFFFFF" d="M16.671,81.064c0,3.387-2.746,6.133-6.133,6.133c-3.389,0-6.135-2.746-6.135-6.133
	c0-3.388,2.746-6.134,6.135-6.134C13.925,74.931,16.671,77.677,16.671,81.064"/>
<path fill="#FFFFFF" d="M31.671,81.064c0,3.387-2.746,6.133-6.133,6.133c-3.389,0-6.135-2.746-6.135-6.133
	c0-3.388,2.746-6.134,6.135-6.134C28.925,74.931,31.671,77.677,31.671,81.064"/>
<path fill="#FFFFFF" d="M46.671,81.064c0,3.387-2.746,6.133-6.133,6.133c-3.389,0-6.135-2.746-6.135-6.133
	c0-3.388,2.746-6.134,6.135-6.134C43.925,74.931,46.671,77.677,46.671,81.064"/>
<path fill="#FFFFFF" d="M61.671,81.064c0,3.387-2.746,6.133-6.133,6.133c-3.389,0-6.135-2.746-6.135-6.133
	c0-3.388,2.746-6.134,6.135-6.134C58.925,74.931,61.671,77.677,61.671,81.064"/>
<circle fill="none" stroke="#FFFFFF" stroke-miterlimit="10" cx="70.537" cy="81.064" r="6.134"/>
<path fill="#FFFFFF" d="M16.671,101.064c0,3.387-2.746,6.133-6.133,6.133c-3.389,0-6.135-2.746-6.135-6.133
	c0-3.388,2.746-6.134,6.135-6.134C13.925,94.931,16.671,97.677,16.671,101.064"/>
<path fill="#FFFFFF" d="M31.671,101.064c0,3.387-2.746,6.133-6.133,6.133c-3.389,0-6.135-2.746-6.135-6.133
	c0-3.388,2.746-6.134,6.135-6.134C28.925,94.931,31.671,97.677,31.671,101.064"/>
<path fill="#FFFFFF" d="M46.671,101.064c0,3.387-2.746,6.133-6.133,6.133c-3.389,0-6.135-2.746-6.135-6.133
	c0-3.388,2.746-6.134,6.135-6.134C43.925,94.931,46.671,97.677,46.671,101.064"/>
<path fill="#FFFFFF" d="M61.671,101.064c0,3.387-2.746,6.133-6.133,6.133c-3.389,0-6.135-2.746-6.135-6.133
	c0-3.388,2.746-6.134,6.135-6.134C58.925,94.931,61.671,97.677,61.671,101.064"/>
<circle fill="none" stroke="#FFFFFF" stroke-miterlimit="10" cx="70.537" cy="101.064" r="6.134"/>
<path fill="#FFFFFF" d="M16.671,122.064c0,3.387-2.746,6.133-6.133,6.133c-3.389,0-6.135-2.746-6.135-6.133
	c0-3.388,2.746-6.134,6.135-6.134C13.925,115.931,16.671,118.677,16.671,122.064"/>
<path fill="#FFFFFF" d="M31.646,122.608c-0.3,3.373-3.278,5.865-6.652,5.564c-3.375-0.3-5.867-3.279-5.566-6.652
	c0.3-3.374,3.278-5.866,6.654-5.565C29.455,116.255,31.947,119.234,31.646,122.608"/>
<circle fill="#FFFFFF" cx="40.537" cy="122.064" r="6.134"/>
<circle fill="none" stroke="#FFFFFF" stroke-miterlimit="10" cx="55.537" cy="122.064" r="6.134"/>
<circle fill="none" stroke="#FFFFFF" stroke-miterlimit="10" cx="70.537" cy="122.064" r="6.134"/>
<path fill="#FFFFFF" d="M16.671,143.064c0,3.387-2.746,6.133-6.133,6.133c-3.389,0-6.135-2.746-6.135-6.133
	c0-3.388,2.746-6.134,6.135-6.134C13.925,136.931,16.671,139.677,16.671,143.064"/>
<path fill="#FFFFFF" d="M31.646,143.608c-0.3,3.373-3.278,5.865-6.652,5.564c-3.375-0.3-5.867-3.279-5.566-6.652
	c0.3-3.374,3.278-5.866,6.654-5.565C29.455,137.255,31.947,140.234,31.646,143.608"/>
<circle fill="#FFFFFF" cx="40.537" cy="143.064" r="6.134"/>
<circle fill="none" stroke="#FFFFFF" stroke-miterlimit="10" cx="55.537" cy="143.064" r="6.134"/>
<circle fill="none" stroke="#FFFFFF" stroke-miterlimit="10" cx="70.537" cy="143.064" r="6.134"/>
<path fill="#FFFFFF" d="M16.671,162.064c0,3.387-2.746,6.133-6.133,6.133c-3.389,0-6.135-2.746-6.135-6.133
	c0-3.388,2.746-6.134,6.135-6.134C13.925,155.931,16.671,158.677,16.671,162.064"/>
<path fill="#FFFFFF" d="M31.646,162.608c-0.3,3.373-3.278,5.865-6.652,5.564c-3.375-0.3-5.867-3.279-5.566-6.652
	c0.3-3.374,3.278-5.866,6.654-5.565C29.455,156.255,31.947,159.234,31.646,162.608"/>
<circle fill="#FFFFFF" cx="40.537" cy="162.064" r="6.134"/>
<circle fill="none" stroke="#FFFFFF" stroke-miterlimit="10" cx="55.537" cy="162.064" r="6.134"/>
<circle fill="none" stroke="#FFFFFF" stroke-miterlimit="10" cx="70.537" cy="162.064" r="6.134"/>
<path fill="#FFFFFF" d="M55.538,115.931v12.267c0,0-6.232,0.339-6.405-5.749C49.133,122.448,49.706,116.535,55.538,115.931z"/>
</svg>
