<?xml version="1.0" encoding="utf-8"?>
<!-- Generator: Adobe Illustrator 15.1.0, SVG Export Plug-In . SVG Version: 6.00 Build 0)  -->
<!DOCTYPE svg PUBLIC "-//W3C//DTD SVG 1.1//EN" "http://www.w3.org/Graphics/SVG/1.1/DTD/svg11.dtd">
<svg version="1.1" id="Layer_1" xmlns="http://www.w3.org/2000/svg" xmlns:xlink="http://www.w3.org/1999/xlink" x="0px" y="0px"
	 width="266.349px" height="42px" viewBox="0 5.26 266.349 42" enable-background="new 0 5.26 266.349 42" xml:space="preserve">
<g>
	<path fill="#9EA0A5" d="M12.412,29.903c-1.36,0.072-2.549,0.109-3.568,0.109c-0.17,0-0.322-0.067-0.455-0.201
		c-0.134-0.133-0.2-0.284-0.2-0.455c0-0.169,0.066-0.32,0.2-0.455c0.133-0.133,0.285-0.199,0.455-0.199
		c0.995,0,2.148-0.023,3.459-0.072c-0.073-1.116-0.109-2.197-0.109-3.241c0-0.169,0.066-0.321,0.2-0.455
		c0.133-0.133,0.285-0.2,0.455-0.2c0.169,0,0.321,0.067,0.455,0.2c0.133,0.134,0.2,0.286,0.2,0.455c0,1.021,0.037,2.076,0.109,3.168
		c0.242-0.022,0.734-0.055,1.475-0.091c0.74-0.036,1.316-0.066,1.729-0.091c0.194,0,0.358,0.061,0.492,0.182
		c0.133,0.122,0.2,0.273,0.2,0.455c0,0.183-0.061,0.341-0.182,0.474c-0.122,0.135-0.268,0.2-0.437,0.2
		c-0.389,0.024-0.953,0.056-1.693,0.091c-0.741,0.036-1.232,0.067-1.475,0.092c0.121,1.068,0.278,2.245,0.473,3.531
		c0.024,0.194-0.018,0.364-0.127,0.511c-0.109,0.146-0.255,0.23-0.437,0.255c-0.182,0.023-0.346-0.02-0.492-0.127
		c-0.146-0.109-0.231-0.249-0.255-0.419C12.69,32.258,12.533,31.02,12.412,29.903z"/>
	<path fill="#9EA0A5" d="M29.888,24.806c-0.268,0.072-0.546,0.109-0.838,0.109c-0.17,0-0.322-0.067-0.455-0.2
		c-0.133-0.134-0.2-0.285-0.2-0.456c0-0.169,0.067-0.321,0.2-0.455c0.133-0.133,0.285-0.2,0.455-0.2
		c0.267,0,0.546-0.071,0.838-0.218c0.023-1.359,0.084-2.464,0.182-3.313c0.219-1.894,0.376-3.034,0.474-3.423
		c0.461-1.82,1.274-2.778,2.439-2.876c0.606-0.048,1.08,0.158,1.42,0.619c0.267,0.34,0.424,0.814,0.474,1.42
		c0.073,1.021-0.146,2.233-0.656,3.642c-0.51,1.456-1.177,2.67-2.002,3.641c-0.316,0.413-0.655,0.753-1.02,1.021
		c0,2.088,0.097,4.055,0.292,5.898c0.242,2.136,0.606,3.884,1.092,5.243c0.534,1.505,1.165,2.428,1.893,2.767
		c1.238,0.534,2.44-0.206,3.605-2.221c0.825-1.432,1.48-3.107,1.966-5.024c-0.049-0.484-0.085-0.959-0.109-1.421
		c-0.049-0.995-0.061-1.783-0.037-2.365c0-0.511,0.037-0.91,0.109-1.202c0.024-0.193,0.073-0.363,0.146-0.51
		c0.097-0.242,0.267-0.412,0.51-0.511c0.194-0.071,0.388-0.071,0.583,0c0.194,0.073,0.339,0.195,0.437,0.364
		c0.097,0.171,0.158,0.389,0.182,0.655c0,0.098-0.012,0.438-0.036,1.02c-0.073,1.7-0.219,3.035-0.437,4.006l-0.037,0.036
		c0.169,1.604,0.461,2.986,0.874,4.151c0.776,2.209,1.894,3.275,3.35,3.204c1.359-0.049,2.427-0.983,3.205-2.805
		c0.728-1.698,1.189-3.992,1.383-6.882c0.146-2.451,0.109-4.976-0.109-7.572c-0.219-2.599-0.486-4.576-0.801-5.937
		c-0.049-0.169-0.031-0.333,0.055-0.492c0.084-0.157,0.218-0.255,0.4-0.291c0.182-0.037,0.352-0.012,0.51,0.073
		c0.158,0.085,0.249,0.225,0.273,0.419c0.364,1.408,0.656,3.447,0.874,6.117c0.219,2.67,0.255,5.256,0.109,7.755
		c-0.219,3.059-0.716,5.499-1.493,7.319c-0.996,2.33-2.439,3.53-4.333,3.604c-2.112,0.097-3.666-1.262-4.661-4.078
		c-0.195-0.558-0.364-1.141-0.51-1.748c-0.389,1.044-0.814,1.968-1.274,2.769c-1.554,2.719-3.302,3.629-5.244,2.729
		c-1.092-0.484-1.966-1.649-2.622-3.495c-0.51-1.432-0.886-3.276-1.128-5.533C30.021,28.41,29.912,26.626,29.888,24.806z
		 M31.235,22.257c0.728-0.85,1.323-1.93,1.784-3.241c0.437-1.238,0.619-2.281,0.546-3.131c-0.024-0.34-0.085-0.583-0.182-0.729
		c-0.073-0.073-0.158-0.098-0.255-0.073c-0.583,0.049-1.02,0.68-1.311,1.894c-0.097,0.34-0.243,1.42-0.437,3.241
		C31.308,20.752,31.259,21.432,31.235,22.257z"/>
	<path fill="#9EA0A5" d="M55.521,37.186c0.777,0.777,1.796,1.25,3.059,1.42c0.947,0.122,1.894,0.036,2.84-0.255
		c0.947-0.291,1.76-0.752,2.44-1.384c0.121-0.121,0.273-0.182,0.455-0.182s0.333,0.065,0.455,0.199
		c0.121,0.135,0.182,0.291,0.182,0.474s-0.073,0.334-0.219,0.455c-0.801,0.776-1.772,1.336-2.913,1.676
		c-1.142,0.339-2.282,0.437-3.423,0.291c-1.189-0.146-2.257-0.56-3.204-1.238c-0.947-0.703-1.626-1.649-2.039-2.84
		c-0.559-1.724-0.759-3.61-0.601-5.662c0.157-2.051,0.625-3.878,1.402-5.479c0.437-0.898,0.946-1.626,1.529-2.186
		c0.631-0.583,1.25-0.874,1.857-0.874c0.752,0,1.311,0.4,1.675,1.201c0.291,0.704,0.4,1.675,0.328,2.913
		C59.126,29.018,57.852,32.841,55.521,37.186z M54.647,35.983c2.063-3.883,3.192-7.33,3.386-10.341c0.073-1.043,0-1.808-0.218-2.294
		c-0.146-0.291-0.304-0.437-0.473-0.437c-0.268,0-0.595,0.17-0.983,0.51c-0.461,0.437-0.874,1.044-1.238,1.82
		c-0.705,1.457-1.129,3.126-1.274,5.007c-0.146,1.882,0.036,3.587,0.546,5.114C54.466,35.583,54.55,35.79,54.647,35.983z"/>
	<path fill="#9EA0A5" d="M72.016,39.006c-0.583,0.291-1.226,0.51-1.93,0.655c-1.845,0.363-3.398,0.061-4.661-0.91v0.255
		c0,0.17-0.067,0.322-0.2,0.455c-0.134,0.133-0.286,0.2-0.455,0.2c-0.17,0-0.322-0.067-0.455-0.2c-0.134-0.133-0.2-0.285-0.2-0.455
		v-0.474c-0.024-0.341-0.146-1.421-0.364-3.24c-0.218-1.82-0.364-3.06-0.437-3.714c-0.073-0.655-0.17-1.688-0.291-3.096
		s-0.206-2.657-0.255-3.751c-0.048-0.995-0.061-2.087-0.037-3.275c0.024-2.088,0.061-3.301,0.109-3.643
		c0.121-0.897,0.315-1.589,0.583-2.074c0.169-0.341,0.4-0.596,0.692-0.766c0.339-0.193,0.716-0.229,1.129-0.108
		c0.267,0.072,0.473,0.255,0.619,0.546c0.097,0.17,0.182,0.4,0.255,0.691c0.121,0.39,0.23,0.947,0.328,1.675
		c0.146,1.045,0.23,1.955,0.255,2.731c0.048,1.142,0.037,2.367-0.036,3.678c1.748-1.819,3.471-2.464,5.17-1.93
		c0.897,0.291,1.675,0.886,2.33,1.784c0.656,0.897,1.153,1.966,1.493,3.204c0.728,2.621,0.679,5.109-0.146,7.464
		c-0.51,1.433-1.262,2.586-2.257,3.459c0.558,0.219,1.238,0.364,2.039,0.438c0.825,0.072,1.529-0.019,2.112-0.272
		s1.177-0.687,1.784-1.292c0.121-0.146,0.273-0.219,0.455-0.219s0.34,0.061,0.474,0.182c0.133,0.122,0.2,0.272,0.2,0.455
		s-0.061,0.334-0.182,0.455c-0.729,0.776-1.475,1.323-2.239,1.639c-0.765,0.315-1.657,0.438-2.676,0.364
		C73.909,39.819,72.84,39.516,72.016,39.006z M64.77,16.103c-0.024-0.023-0.036-0.048-0.036-0.072l-0.037,0.036
		c0,0.024,0.012,0.05,0.037,0.073c-0.049,0.049-0.109,0.122-0.182,0.218c-0.17,0.341-0.304,0.888-0.401,1.64
		c-0.049,0.389-0.085,1.542-0.109,3.459c-0.024,2.791,0.169,6.178,0.583,10.158l0.218-1.895c0.461-3.979,0.643-7.027,0.546-9.139
		c-0.024-0.776-0.109-1.65-0.255-2.622c-0.073-0.631-0.158-1.128-0.255-1.493c-0.049-0.121-0.085-0.219-0.109-0.292
		c0.048,0,0.085-0.024,0.109-0.073c-0.024,0.049-0.061,0.062-0.109,0.037V16.103z M64.77,16.103l-0.036,0.037
		c0,0.024,0.012,0.036,0.036,0.036V16.14V16.103z M70.923,38.06c-0.122-0.121-0.243-0.268-0.364-0.438
		c-0.122-0.121-0.322-0.376-0.601-0.766c-0.279-0.388-0.486-0.661-0.619-0.818c-0.134-0.157-0.353-0.357-0.656-0.602
		c-0.304-0.242-0.625-0.449-0.965-0.619c-0.461-0.192-0.874-0.248-1.238-0.164c-0.364,0.087-0.655,0.273-0.874,0.564
		c-0.049,0.607-0.097,1.178-0.146,1.712c0.073,0.121,0.158,0.243,0.255,0.364c1.068,1.044,2.452,1.396,4.151,1.056
		C70.231,38.277,70.583,38.181,70.923,38.06z M72.088,37.403c0.971-0.728,1.699-1.771,2.185-3.131
		c0.728-2.111,0.765-4.345,0.109-6.699c-0.292-1.067-0.705-1.967-1.238-2.694c-0.51-0.703-1.08-1.165-1.711-1.383
		c-1.505-0.461-3.144,0.509-4.916,2.912c-0.073,0.802-0.194,1.953-0.364,3.459c-0.219,1.869-0.352,3.083-0.401,3.642
		c0.801-0.34,1.651-0.291,2.549,0.146c0.413,0.194,0.807,0.449,1.184,0.766c0.376,0.314,0.649,0.57,0.819,0.765
		c0.169,0.194,0.413,0.498,0.728,0.91c0.315,0.413,0.498,0.655,0.546,0.729C71.748,37.04,71.918,37.234,72.088,37.403z"/>
	<path fill="#9EA0A5" d="M91.859,14.355c2.136,0,4.46,0.874,6.973,2.622s4.679,3.884,6.5,6.409c1.917,2.694,3.034,5.268,3.35,7.719
		c0.364,2.864-0.461,5.146-2.476,6.847c-0.316,0.241-0.631,0.473-0.947,0.69c0.752,0.17,1.444,0.269,2.076,0.291
		c1.626,0.024,2.828-0.582,3.604-1.82c0.097-0.146,0.23-0.235,0.4-0.271c0.17-0.037,0.333-0.006,0.492,0.091
		c0.158,0.097,0.255,0.23,0.292,0.4c0.036,0.17,0.005,0.34-0.091,0.51c-1.044,1.651-2.622,2.451-4.733,2.403
		c-1.068-0.024-2.355-0.279-3.859-0.766c-2.307,0.802-4.819,0.824-7.537,0.072c-0.923-0.242-1.615-0.473-2.076-0.691
		c-0.122-0.049-0.231-0.108-0.328-0.183c0,0.146-0.013,0.292-0.037,0.438c-0.024,0.193-0.109,0.346-0.255,0.454
		c-0.146,0.109-0.31,0.151-0.491,0.128c-0.182-0.024-0.328-0.108-0.437-0.256c-0.109-0.146-0.152-0.303-0.127-0.473
		c0.146-1.141,0.224-2.313,0.236-3.514c0.012-1.202-0.024-2.678-0.109-4.424c-0.085-1.748-0.127-2.95-0.127-3.605
		c-0.073-4.709-0.182-8.629-0.328-11.761c-0.17,0-0.316-0.066-0.437-0.2c-0.122-0.133-0.182-0.285-0.182-0.455
		c0-0.169,0.066-0.321,0.2-0.455C91.537,14.422,91.689,14.355,91.859,14.355z M103.401,38.096c0.728-0.291,1.371-0.68,1.93-1.165
		c1.675-1.384,2.354-3.277,2.039-5.681c-0.267-2.208-1.299-4.575-3.095-7.101c-1.529-2.111-3.32-3.944-5.371-5.499
		c-2.052-1.553-3.975-2.5-5.771-2.84c0.146,3.107,0.255,6.979,0.328,11.615c0,0.486,0.042,1.712,0.127,3.678
		c0.085,1.967,0.115,3.483,0.091,4.553c0.752-0.341,1.808-0.328,3.167,0.035c0.461,0.122,0.971,0.279,1.529,0.475l2.076,0.801
		c0.849,0.315,1.396,0.534,1.639,0.655L103.401,38.096z M101.18,38.678c-2.525-0.994-4.078-1.565-4.661-1.711
		c-1.433-0.364-2.354-0.278-2.767,0.255v0.036c0.097,0.122,0.315,0.255,0.655,0.4c0.388,0.194,1.007,0.412,1.857,0.655
		C97.939,38.751,99.578,38.873,101.18,38.678z"/>
	<path fill="#9EA0A5" d="M113.487,37.186c0.777,0.777,1.796,1.25,3.059,1.42c0.947,0.122,1.894,0.036,2.84-0.255
		c0.947-0.291,1.76-0.752,2.44-1.384c0.121-0.121,0.273-0.182,0.455-0.182c0.182,0,0.333,0.065,0.455,0.199
		c0.121,0.135,0.182,0.291,0.182,0.474s-0.073,0.334-0.219,0.455c-0.801,0.776-1.772,1.336-2.913,1.676
		c-1.142,0.339-2.282,0.437-3.423,0.291c-1.189-0.146-2.257-0.56-3.204-1.238c-0.947-0.703-1.626-1.649-2.039-2.84
		c-0.559-1.724-0.759-3.61-0.601-5.662c0.157-2.051,0.625-3.878,1.402-5.479c0.437-0.898,0.946-1.626,1.529-2.186
		c0.631-0.583,1.25-0.874,1.857-0.874c0.752,0,1.311,0.4,1.675,1.201c0.291,0.704,0.4,1.675,0.328,2.913
		C117.092,29.018,115.817,32.841,113.487,37.186z M112.613,35.983c2.063-3.883,3.192-7.33,3.386-10.341
		c0.073-1.043,0-1.808-0.218-2.294c-0.146-0.291-0.304-0.437-0.473-0.437c-0.268,0-0.595,0.17-0.983,0.51
		c-0.461,0.437-0.874,1.044-1.238,1.82c-0.705,1.457-1.129,3.126-1.274,5.007c-0.146,1.882,0.036,3.587,0.546,5.114
		C112.431,35.583,112.516,35.79,112.613,35.983z"/>
	<path fill="#9EA0A5" d="M129.544,22.876c0.097,0.072,0.158,0.17,0.182,0.291l0.036,0.255c0.048,0.194,0.085,0.389,0.109,0.582
		v0.108c0.267,2.039,0.376,4.128,0.328,6.264c1.457,1.189,2.876,1.591,4.26,1.202c0.169-0.05,0.339-0.03,0.51,0.055
		c0.169,0.085,0.279,0.213,0.328,0.382c0.048,0.17,0.03,0.334-0.055,0.492s-0.213,0.261-0.382,0.31
		c-1.554,0.461-3.131,0.17-4.733-0.874c-0.146,1.846-0.474,3.362-0.983,4.552c-0.607,1.578-1.493,2.586-2.658,3.021
		c-0.51,0.17-1.044,0.206-1.602,0.109c-0.534-0.099-1.008-0.291-1.42-0.583c-0.85-0.606-1.469-1.771-1.857-3.495
		c-0.315-1.312-0.51-2.974-0.583-4.988c-0.049-1.407-0.036-3.083,0.037-5.024c0-0.363,0.012-0.808,0.036-1.328
		c0.024-0.522,0.042-0.94,0.055-1.257c0.012-0.315,0.019-0.582,0.019-0.802c0-0.17,0.073-0.32,0.218-0.455
		c0.146-0.133,0.303-0.199,0.473-0.199c0.17,0,0.328,0.066,0.474,0.199c0.146,0.135,0.218,0.285,0.218,0.455l-0.146,3.423
		c-0.073,2.089-0.085,3.738-0.037,4.952c0.097,1.917,0.279,3.495,0.546,4.733c0.34,1.408,0.801,2.33,1.384,2.767
		c0.558,0.39,1.116,0.475,1.675,0.255c0.801-0.291,1.444-1.043,1.93-2.257c0.437-1.093,0.729-2.523,0.874-4.297
		c0.024-0.267,0.036-0.533,0.036-0.801c-0.291-0.268-0.57-0.559-0.837-0.874c-0.898-1.068-1.547-2.239-1.948-3.514
		c-0.401-1.274-0.407-2.458-0.019-3.551c0.267-0.776,0.619-1.299,1.056-1.565c0.534-0.315,1.068-0.278,1.602,0.108
		C129.034,21.819,129.325,22.27,129.544,22.876z M127.723,22.548c-0.17,0.122-0.352,0.425-0.546,0.91
		c-0.34,0.826-0.334,1.771,0.018,2.84c0.352,1.069,0.977,2.076,1.875,3.021c0-2.063-0.17-3.92-0.51-5.569
		c-0.17-0.583-0.425-0.972-0.765-1.166C127.796,22.561,127.771,22.548,127.723,22.548z"/>
	<path fill="#9EA0A5" d="M137.299,37.186c0.777,0.777,1.796,1.25,3.06,1.42c0.947,0.122,1.894,0.036,2.84-0.255
		c0.947-0.291,1.76-0.752,2.439-1.384c0.121-0.121,0.273-0.182,0.455-0.182s0.333,0.065,0.455,0.199
		c0.121,0.135,0.182,0.291,0.182,0.474s-0.072,0.334-0.219,0.455c-0.801,0.776-1.771,1.336-2.912,1.676
		c-1.143,0.339-2.283,0.437-3.424,0.291c-1.189-0.146-2.257-0.56-3.203-1.238c-0.948-0.703-1.626-1.649-2.04-2.84
		c-0.559-1.724-0.759-3.61-0.601-5.662c0.157-2.051,0.625-3.878,1.402-5.479c0.437-0.898,0.946-1.626,1.53-2.186
		c0.631-0.583,1.25-0.874,1.856-0.874c0.752,0,1.312,0.4,1.675,1.201c0.291,0.704,0.4,1.675,0.328,2.913
		C140.903,29.018,139.63,32.841,137.299,37.186z M136.425,35.983c2.063-3.883,3.192-7.33,3.387-10.341
		c0.072-1.043,0-1.808-0.219-2.294c-0.146-0.291-0.304-0.437-0.473-0.437c-0.268,0-0.596,0.17-0.982,0.51
		c-0.462,0.437-0.875,1.044-1.238,1.82c-0.706,1.457-1.129,3.126-1.274,5.007c-0.146,1.882,0.036,3.587,0.546,5.114
		C136.244,35.583,136.328,35.79,136.425,35.983z"/>
	<path fill="#9EA0A5" d="M146.838,36.166c0.606,1.335,1.347,2.232,2.222,2.693c0.558,0.291,1.104,0.341,1.639,0.146
		c0.679-0.242,1.347-0.838,2.002-1.784c0.097-0.146,0.236-0.236,0.419-0.272c0.182-0.036,0.346-0.006,0.491,0.092
		c0.146,0.097,0.236,0.235,0.273,0.418s0.006,0.347-0.091,0.492c-0.801,1.188-1.675,1.952-2.622,2.294
		c-0.923,0.34-1.833,0.267-2.73-0.22c-0.754-0.389-1.42-1.02-2.004-1.894c-0.582-0.874-1.02-1.832-1.311-2.876
		c-0.825-2.792-1.189-6.008-1.092-9.649c0.072-3.615,0.595-6.809,1.564-9.575c0.194-0.559,0.377-0.958,0.547-1.202
		c0.267-0.364,0.582-0.57,0.946-0.619c0.437-0.048,0.849,0.146,1.238,0.583c0.267,0.34,0.461,0.897,0.583,1.675
		c0.072,0.631,0.109,1.433,0.109,2.403c0,1.698-0.135,3.847-0.4,6.444c-0.243,2.209-0.534,4.369-0.874,6.481
		c-0.34,2.111-0.631,3.531-0.874,4.26C146.875,36.105,146.862,36.142,146.838,36.166z M147.239,15.557
		c0,0.024-0.014,0.036-0.037,0.036c-0.098,0.146-0.219,0.438-0.364,0.874c-0.851,2.403-1.342,5.225-1.476,8.465
		c-0.133,3.241,0.104,6.172,0.711,8.794c0.484-2.523,0.896-5.377,1.238-8.557c0.267-2.549,0.399-4.648,0.399-6.299
		c0-0.922-0.036-1.663-0.108-2.222c-0.074-0.533-0.17-0.86-0.293-0.982C147.287,15.618,147.263,15.582,147.239,15.557z"/>
	<path fill="#9EA0A5" d="M157.907,21.602c0.072,0,0.146,0.013,0.218,0.036c0.17-0.049,0.328-0.036,0.474,0.036
		c2.307,1.068,3.812,3.145,4.516,6.227c1.164-0.314,2.172-0.752,3.021-1.311c0.146-0.097,0.311-0.128,0.492-0.091
		c0.182,0.036,0.321,0.127,0.418,0.271c0.098,0.146,0.127,0.311,0.092,0.492c-0.037,0.182-0.128,0.321-0.273,0.418
		c-0.996,0.655-2.172,1.165-3.532,1.529c0.169,1.287,0.158,2.549-0.037,3.787c-0.315,2.354-1.116,4.163-2.403,5.425
		c-1.48,1.457-3.252,1.797-5.315,1.02c-1.626-0.631-2.767-1.952-3.423-3.969c-0.582-1.747-0.715-3.714-0.399-5.897
		c0.315-2.186,0.946-4.006,1.894-5.463c1.115-1.697,2.463-2.549,4.041-2.549C157.763,21.564,157.834,21.577,157.907,21.602z
		 M162.058,29.466c-2.015,0.292-3.666,0.049-4.951-0.729c-0.752-0.438-1.323-0.994-1.711-1.676c-0.39-0.679-0.571-1.383-0.547-2.11
		c0.024-0.121,0.037-0.23,0.037-0.328l-0.146,0.219c-0.874,1.311-1.444,2.949-1.712,4.916c-0.268,1.99-0.146,3.763,0.365,5.315
		c0.533,1.627,1.407,2.671,2.621,3.132c1.553,0.582,2.877,0.34,3.969-0.729c1.068-1.043,1.748-2.597,2.039-4.66
		C162.167,31.699,162.179,30.583,162.058,29.466z M161.84,28.191c-0.606-2.621-1.845-4.393-3.714-5.314
		c-1.262,0.364-1.917,1.08-1.966,2.146c-0.025,0.462,0.103,0.93,0.382,1.402c0.279,0.474,0.686,0.88,1.221,1.22
		C158.781,28.253,160.14,28.435,161.84,28.191z"/>
	<path fill="#9EA0A5" d="M167.521,21.966c0.121,0.85,0.146,2.366,0.072,4.551c0.485-1.165,1.043-2.11,1.676-2.84
		c1.02-1.189,2.185-1.76,3.496-1.711c1.067,0.024,2.002,0.595,2.803,1.711c0.535,0.729,0.972,1.614,1.312,2.658
		c0.485,1.675,0.515,3.439,0.091,5.298c-0.425,1.856-1.171,3.453-2.238,4.788c-0.777,1.02-1.64,1.724-2.586,2.111
		c1.359,0.268,2.754,0.262,4.188-0.019c1.432-0.279,2.707-0.783,3.823-1.512c0.146-0.098,0.31-0.127,0.491-0.091
		c0.183,0.036,0.322,0.128,0.418,0.272c0.098,0.146,0.127,0.311,0.092,0.491c-0.037,0.183-0.127,0.322-0.273,0.419
		c-1.699,1.142-3.666,1.784-5.898,1.93c-2.256,0.121-4.32-0.353-6.189-1.42c0.559,1.82,0.85,3.446,0.874,4.879
		c0.024,0.897-0.085,1.748-0.328,2.55c-0.073,0.291-0.17,0.533-0.292,0.729c-0.17,0.291-0.389,0.485-0.654,0.582
		c-0.34,0.121-0.668,0.061-0.983-0.182c-0.243-0.146-0.486-0.4-0.728-0.766c-0.244-0.389-0.438-0.996-0.584-1.819
		c-0.097-0.705-0.158-1.615-0.182-2.731c-0.072-1.578-0.061-3.762,0.037-6.554c0-0.583,0.023-1.214,0.072-1.895
		c0.025-0.437,0.056-1.104,0.092-2.003c0.037-0.896,0.066-1.577,0.091-2.039c0.024-0.46,0.048-1.056,0.073-1.784
		c0.023-0.728,0.035-1.311,0.035-1.746v-1.457c0-0.511-0.006-0.946-0.018-1.312c-0.013-0.364-0.042-0.68-0.091-0.946
		c-0.024-0.17,0.019-0.327,0.127-0.474c0.108-0.146,0.255-0.229,0.437-0.255c0.183-0.024,0.347,0.019,0.492,0.127
		C167.41,21.619,167.495,21.771,167.521,21.966z M167.993,45.96c0.048-0.072,0.084-0.17,0.109-0.291
		c0.193-0.655,0.278-1.384,0.254-2.186c-0.023-1.528-0.412-3.361-1.164-5.498c-0.024,1.507-0.019,2.779,0.018,3.823
		c0.037,1.043,0.104,1.895,0.2,2.549c0.097,0.655,0.219,1.093,0.364,1.312C167.847,45.79,167.92,45.888,167.993,45.96z
		 M167.737,35.692c0.971,1.264,1.99,1.869,3.059,1.82c0.995-0.072,1.96-0.703,2.895-1.894c0.935-1.188,1.597-2.621,1.984-4.296
		c0.389-1.676,0.376-3.191-0.037-4.553c-0.314-0.945-0.691-1.723-1.128-2.33c-0.534-0.752-1.116-1.141-1.747-1.165
		c-0.924-0.023-1.761,0.4-2.513,1.274c-0.705,0.825-1.312,1.99-1.821,3.495c-0.559,1.675-0.923,3.482-1.092,5.426l-0.036,1.128
		L167.737,35.692z"/>
	<path fill="#9EA0A5" d="M180.409,22.476c0.023,0.51,0.091,1.407,0.199,2.694c0.109,1.286,0.177,2.281,0.201,2.985v0.327
		c0.582-1.918,1.262-3.423,2.039-4.516c1.115-1.577,2.366-2.208,3.75-1.894c0.801,0.194,1.479,0.813,2.039,1.856
		c0.387,0.777,0.715,1.797,0.982,3.06c0.146,0.606,0.268,1.286,0.363,2.038c0.365-1.819,0.85-3.276,1.457-4.368
		c0.776-1.457,1.735-2.245,2.877-2.367c1.432-0.146,2.476,0.606,3.131,2.258c0.437,1.116,0.703,2.779,0.801,4.988
		c0.023,0.51,0.048,2.307,0.072,5.389c0.025,1.797,0.123,2.913,0.293,3.35c0.146,0.413,0.388,0.675,0.728,0.783
		c0.341,0.109,0.74,0.079,1.202-0.091c0.484-0.146,0.934-0.389,1.348-0.729c0.412-0.341,0.678-0.681,0.801-1.021
		c0.072-0.17,0.193-0.285,0.363-0.346c0.17-0.062,0.34-0.062,0.51,0c0.17,0.061,0.285,0.176,0.347,0.346
		c0.06,0.17,0.065,0.34,0.019,0.51c-0.219,0.534-0.607,1.032-1.166,1.493s-1.164,0.788-1.82,0.982
		c-0.729,0.243-1.396,0.268-2.002,0.072c-0.729-0.219-1.25-0.716-1.565-1.492c-0.219-0.606-0.34-1.895-0.364-3.859
		c-0.049-3.423-0.072-5.194-0.072-5.316c-0.073-2.063-0.305-3.592-0.692-4.588c-0.413-1.043-1.008-1.517-1.784-1.42
		c-0.705,0.073-1.335,0.632-1.895,1.675c-0.51,0.973-0.946,2.319-1.311,4.042c-0.461,2.282-0.716,4.771-0.765,7.466v0.51v0.218
		v0.183c0,0.05-0.013,0.085-0.037,0.109c-0.073,0.194-0.194,0.327-0.364,0.4c-0.218,0.071-0.438,0.036-0.654-0.109
		c-0.073-0.049-0.135-0.121-0.183-0.219c-0.024-0.048-0.036-0.098-0.036-0.146l-0.037-0.108V37.55v-0.219v-0.546
		c0-0.341-0.012-0.74-0.035-1.202c-0.099-1.82-0.146-2.791-0.146-2.913c-0.146-2.257-0.363-4.065-0.654-5.425
		c-0.244-1.142-0.535-2.039-0.875-2.694c-0.363-0.68-0.752-1.068-1.164-1.165c-0.826-0.194-1.627,0.255-2.404,1.347
		c-0.752,1.044-1.407,2.585-1.965,4.624c-0.414,1.506-0.729,3.083-0.947,4.734c0.048,1.262,0.072,2.27,0.072,3.021v1.748
		c0,0.098-0.013,0.183-0.037,0.256c-0.023,0.071-0.072,0.146-0.146,0.219c-0.194,0.242-0.437,0.313-0.728,0.218
		c-0.146-0.072-0.256-0.169-0.328-0.291c-0.025-0.023-0.037-0.061-0.037-0.109l-0.073-0.219c-0.243-0.896-0.278-2.306-0.108-4.224
		c0.023-0.218,0.047-0.448,0.072-0.691c-0.023-0.85-0.035-1.358-0.035-1.528l-0.037-1.021v-0.073
		c-0.024-0.022-0.037-0.048-0.037-0.071v-0.036v-0.073c0-0.267-0.024-1.286-0.072-3.059c-0.023-0.681-0.091-1.656-0.2-2.932
		c-0.108-1.273-0.176-2.167-0.2-2.677c0-0.194,0.062-0.357,0.182-0.491c0.121-0.134,0.273-0.2,0.455-0.2
		c0.183,0,0.341,0.062,0.475,0.183S180.409,22.306,180.409,22.476z"/>
	<path fill="#9EA0A5" d="M205.313,37.186c0.777,0.777,1.797,1.25,3.06,1.42c0.946,0.122,1.894,0.036,2.84-0.255
		c0.947-0.291,1.761-0.752,2.44-1.384c0.121-0.121,0.272-0.182,0.455-0.182c0.182,0,0.332,0.065,0.455,0.199
		c0.121,0.135,0.182,0.291,0.182,0.474s-0.073,0.334-0.219,0.455c-0.801,0.776-1.772,1.336-2.914,1.676
		c-1.141,0.339-2.281,0.437-3.422,0.291c-1.189-0.146-2.258-0.56-3.205-1.238c-0.946-0.703-1.625-1.649-2.038-2.84
		c-0.56-1.724-0.759-3.61-0.601-5.662c0.156-2.051,0.625-3.878,1.401-5.479c0.437-0.898,0.946-1.626,1.528-2.186
		c0.632-0.583,1.25-0.874,1.857-0.874c0.752,0,1.311,0.4,1.676,1.201c0.291,0.704,0.399,1.675,0.328,2.913
		C208.919,29.018,207.646,32.841,205.313,37.186z M204.44,35.983c2.063-3.883,3.191-7.33,3.386-10.341
		c0.073-1.043,0-1.808-0.218-2.294c-0.146-0.291-0.305-0.437-0.474-0.437c-0.268,0-0.595,0.17-0.983,0.51
		c-0.461,0.437-0.873,1.044-1.237,1.82c-0.705,1.457-1.129,3.126-1.274,5.007c-0.146,1.882,0.036,3.587,0.547,5.114
		C204.259,35.583,204.343,35.79,204.44,35.983z"/>
	<path fill="#9EA0A5" d="M213.36,32.16c0-0.897-0.012-2.451-0.036-4.66s-0.037-3.92-0.037-5.134c0-0.171,0.065-0.321,0.2-0.455
		c0.133-0.135,0.285-0.2,0.455-0.2s0.322,0.065,0.455,0.2c0.133,0.134,0.201,0.284,0.201,0.455c0,1.214,0.012,2.948,0.035,5.206
		c0.219-0.582,0.449-1.116,0.692-1.603c0.631-1.311,1.323-2.294,2.075-2.949c0.971-0.874,1.979-1.178,3.022-0.91
		c1.457,0.341,2.392,1.541,2.804,3.604c0.242,1.092,0.353,3.021,0.328,5.789c-0.023,2.694,0.037,4.479,0.182,5.353
		c0.219,1.335,0.656,2.027,1.312,2.075c1.554,0.146,2.876-0.437,3.97-1.747c0.121-0.146,0.272-0.229,0.455-0.255
		c0.182-0.024,0.338,0.024,0.473,0.146c0.133,0.122,0.212,0.272,0.236,0.455c0.024,0.182-0.023,0.334-0.146,0.454
		c-1.384,1.699-3.095,2.451-5.134,2.259c-1.336-0.122-2.161-1.179-2.477-3.168c-0.146-0.947-0.207-2.815-0.182-5.607
		c0.048-2.549-0.049-4.369-0.291-5.462c-0.316-1.529-0.923-2.415-1.821-2.658c-0.606-0.146-1.226,0.073-1.856,0.655
		c-0.607,0.535-1.202,1.384-1.784,2.549c-0.461,0.947-0.854,1.967-1.183,3.059c-0.328,1.094-0.541,1.979-0.638,2.658v1.165
		c0,0.269,0.005,0.789,0.019,1.566c0.012,0.775,0.018,1.383,0.018,1.819c0,0.171-0.012,0.645-0.036,1.421v0.546v0.072v0.072v0.073
		c-0.024,0.023-0.036,0.049-0.036,0.073c-0.05,0.146-0.158,0.267-0.328,0.362c-0.194,0.098-0.39,0.098-0.584,0
		c-0.097-0.048-0.182-0.121-0.254-0.218c-0.025-0.073-0.05-0.134-0.074-0.183c-0.023-0.048-0.037-0.085-0.037-0.109v-0.218
		c0-0.121-0.018-0.68-0.055-1.675c-0.035-0.995-0.054-1.912-0.054-2.749C213.251,33.453,213.288,32.743,213.36,32.16z"/>
	<path fill="#9EA0A5" d="M226.104,21.419c0.606,0.023,1.396,0.023,2.367,0V14.72c0-0.17,0.065-0.322,0.199-0.456
		c0.133-0.133,0.285-0.2,0.455-0.2c0.169,0,0.32,0.067,0.455,0.2c0.133,0.134,0.2,0.286,0.2,0.456v6.663
		c1.043-0.024,1.905-0.024,2.585,0c0.169,0,0.314,0.067,0.438,0.2c0.12,0.134,0.182,0.291,0.182,0.474s-0.067,0.334-0.201,0.455
		c-0.135,0.121-0.297,0.182-0.491,0.182c-0.655-0.022-1.493-0.022-2.513,0v4.952c0,0.486-0.018,1.293-0.055,2.421
		c-0.037,1.129-0.055,2.027-0.055,2.695s0.061,1.444,0.182,2.33c0.121,0.887,0.315,1.656,0.584,2.312
		c0.217,0.583,0.545,0.961,0.982,1.13c0.389,0.146,0.874,0.157,1.457,0.036c0.947-0.219,2.025-0.776,3.241-1.676
		c0.146-0.097,0.309-0.133,0.491-0.107c0.182,0.024,0.328,0.107,0.437,0.255c0.108,0.146,0.151,0.31,0.127,0.491
		s-0.108,0.334-0.255,0.454c-1.359,0.972-2.609,1.591-3.75,1.857c-0.85,0.193-1.59,0.157-2.221-0.109
		c-0.777-0.292-1.36-0.897-1.748-1.82c-0.291-0.729-0.504-1.589-0.637-2.585c-0.135-0.995-0.201-1.846-0.201-2.549
		s0.019-1.633,0.056-2.785s0.056-1.937,0.056-2.35V22.73c-0.996,0.024-1.809,0.024-2.439,0c-0.17,0-0.315-0.066-0.438-0.201
		c-0.121-0.133-0.182-0.291-0.182-0.473c0-0.183,0.066-0.334,0.199-0.455C225.747,21.48,225.91,21.419,226.104,21.419z"/>
	<path fill="#9EA0A5" d="M251.992,29.903c-1.36,0.072-2.55,0.109-3.568,0.109c-0.17,0-0.321-0.067-0.454-0.201
		c-0.135-0.133-0.201-0.284-0.201-0.455c0-0.169,0.066-0.32,0.201-0.455c0.133-0.133,0.284-0.199,0.454-0.199
		c0.995,0,2.147-0.023,3.459-0.072c-0.073-1.116-0.108-2.197-0.108-3.241c0-0.169,0.065-0.321,0.199-0.455
		c0.133-0.133,0.285-0.2,0.455-0.2s0.321,0.067,0.455,0.2c0.133,0.134,0.2,0.286,0.2,0.455c0,1.021,0.037,2.076,0.108,3.168
		c0.242-0.022,0.734-0.055,1.476-0.091c0.74-0.036,1.315-0.066,1.729-0.091c0.193,0,0.357,0.061,0.492,0.182
		c0.133,0.122,0.199,0.273,0.199,0.455c0,0.183-0.061,0.341-0.182,0.474c-0.122,0.135-0.268,0.2-0.438,0.2
		c-0.389,0.024-0.953,0.056-1.693,0.091c-0.74,0.036-1.231,0.067-1.475,0.092c0.121,1.068,0.278,2.245,0.473,3.531
		c0.024,0.194-0.018,0.364-0.127,0.511c-0.108,0.146-0.254,0.23-0.437,0.255c-0.183,0.023-0.346-0.02-0.491-0.127
		c-0.146-0.109-0.232-0.249-0.256-0.419C252.271,32.258,252.112,31.02,251.992,29.903z"/>
</g>
</svg>
